<?xml version="1.0" encoding="UTF-8" standalone="no"?>
<!-- Created with Inkscape (http://www.inkscape.org/) -->

<svg
   xmlns:dc="http://purl.org/dc/elements/1.1/"
   xmlns:cc="http://creativecommons.org/ns#"
   xmlns:rdf="http://www.w3.org/1999/02/22-rdf-syntax-ns#"
   xmlns:svg="http://www.w3.org/2000/svg"
   xmlns="http://www.w3.org/2000/svg"
   xmlns:sodipodi="http://sodipodi.sourceforge.net/DTD/sodipodi-0.dtd"
   xmlns:inkscape="http://www.inkscape.org/namespaces/inkscape"
   width="240mm"
   height="120mm"
   viewBox="0 0 240 120"
   version="1.1"
   id="svg8"
   inkscape:version="0.92.3 (2405546, 2018-03-11)"
   sodipodi:docname="juanesgay.svg">
  <defs
     id="defs2" />
  <sodipodi:namedview
     id="base"
     pagecolor="#ffffff"
     bordercolor="#666666"
     borderopacity="1.0"
     inkscape:pageopacity="0.0"
     inkscape:pageshadow="2"
     inkscape:zoom="0.99437388"
     inkscape:cx="357.6893"
     inkscape:cy="297.36556"
     inkscape:document-units="mm"
     inkscape:current-layer="layer1"
     showgrid="false"
     showborder="true"
     width="200mm"
     showguides="true"
     inkscape:guide-bbox="true"
     inkscape:window-width="1920"
     inkscape:window-height="1031"
     inkscape:window-x="0"
     inkscape:window-y="0"
     inkscape:window-maximized="1">
    <inkscape:grid
       type="xygrid"
       id="grid815"
       units="mm"
       spacingx="10"
       spacingy="10"
       empspacing="4"
       dotted="false" />
  </sodipodi:namedview>
  <metadata
     id="metadata5">
    <rdf:RDF>
      <cc:Work
         rdf:about="">
        <dc:format>image/svg+xml</dc:format>
        <dc:type
           rdf:resource="http://purl.org/dc/dcmitype/StillImage" />
        <dc:title></dc:title>
      </cc:Work>
    </rdf:RDF>
  </metadata>
  <g
     inkscape:label="Layer 1"
     inkscape:groupmode="layer"
     id="layer1"
     transform="translate(0,-177)">
    <ellipse
       style="fill:#280b0b;fill-opacity:1;stroke:#0000dc;stroke-width:0.26499999;stroke-miterlimit:4;stroke-dasharray:none;stroke-opacity:1"
       id="path818"
       cx="118.80487"
       cy="202.00932"
       rx="13.703137"
       ry="12.239695" />
    <ellipse
       style="fill:#ffff00;fill-opacity:1;stroke:#0000dc;stroke-width:0.26499999;stroke-miterlimit:4;stroke-dasharray:none;stroke-opacity:1"
       id="path820"
       cx="114.94671"
       cy="198.55028"
       rx="2.3947229"
       ry="2.6608033" />
    <ellipse
       style="fill:#ffff00;fill-opacity:1;stroke:#0000dc;stroke-width:0.26499999;stroke-miterlimit:4;stroke-dasharray:none;stroke-opacity:1"
       id="path820-9"
       cx="123.1952"
       cy="199.61459"
       rx="2.3947229"
       ry="2.6608033" />
    <ellipse
       style="fill:#ffff00;fill-opacity:1;stroke:#0000dc;stroke-width:0.26499999;stroke-miterlimit:4;stroke-dasharray:none;stroke-opacity:1"
       id="path837"
       cx="119.07095"
       cy="208.52829"
       rx="5.4546466"
       ry="1.7295221" />
    <path
       style="fill:none;stroke:#000000;stroke-width:0.26458332px;stroke-linecap:butt;stroke-linejoin:miter;stroke-opacity:1"
       d="m 114.9467,214.24901 -1.06432,7.71633 c 0,0 10.90929,1.86257 10.11105,0.79825 -0.79824,-1.06432 -3.19296,-8.51458 -3.19296,-8.51458"
       id="path839"
       inkscape:connector-curvature="0" />
    <path
       style="fill:none;stroke:#000000;stroke-width:0.26458332px;stroke-linecap:butt;stroke-linejoin:miter;stroke-opacity:1"
       d="m 113.88238,221.96534 c 0,0 -37.517326,21.28643 -14.634416,35.65477 22.882906,14.36834 17.295216,21.28643 35.388686,-0.53216 18.09346,-21.81859 -10.37714,-33.52612 -10.37714,-33.52612"
       id="path841"
       inkscape:connector-curvature="0" />
    <path
       style="fill:none;stroke:#000000;stroke-width:0.26458332px;stroke-linecap:butt;stroke-linejoin:miter;stroke-opacity:1"
       d="M 98.715802,232.34248 68.914806,216.64374 c 0,0 -44.435416,-21.55251 25.011551,19.95602"
       id="path843"
       inkscape:connector-curvature="0" />
    <path
       style="fill:#ffd5d5;stroke:#000000;stroke-width:0.26458332px;stroke-linecap:butt;stroke-linejoin:miter;stroke-opacity:1"
       d="m 137.82961,233.67288 c 0,0 71.57561,-48.16054 37.51733,-18.8917 l -34.59044,26.60803"
       id="path845"
       inkscape:connector-curvature="0" />
    <path
       style="fill:#ffd5d5;fill-opacity:1;stroke:#0000dc;stroke-width:1.00724161;stroke-miterlimit:4;stroke-dasharray:none;stroke-opacity:1"
       d="m 443.47192,351.98302 c -2.21244,-1.02459 -6.96418,-4.0975 -10.5594,-6.82867 -29.68691,-22.55217 -37.55316,-28.28871 -50.78573,-37.03603 -24.95244,-16.49469 -32.64221,-26.31191 -33.46714,-42.72612 -0.51038,-10.15545 1.58186,-17.62598 7.97517,-28.47613 11.09203,-18.82441 36.36653,-42.21652 65.71829,-60.82377 l 8.04526,-5.10022 13.57638,1.92868 c 7.46701,1.06078 16.17853,1.93623 19.35892,1.94545 3.18039,0.009 5.78253,0.46364 5.78253,1.00979 0,0.54616 3.26645,2.63797 7.25876,4.64847 9.34963,4.7084 18.7884,10.97021 26.65201,17.68135 31.73166,27.08108 35.94206,61.12781 11.75163,95.02765 -13.14274,18.41791 -42.30219,50.87265 -50.81436,56.55686 -5.21499,3.48243 -6.91723,4.09645 -11.30457,4.07769 -2.86473,-0.0123 -6.95667,-0.85177 -9.18775,-1.885 z"
       id="path847"
       inkscape:connector-curvature="0"
       transform="matrix(0.26458333,0,0,0.26458333,0,177)" />
    <path
       style="fill:#c83737;fill-opacity:1;stroke:#0000dc;stroke-width:1.00724161;stroke-miterlimit:4;stroke-dasharray:none;stroke-opacity:1"
       d="m 442.8594,350.11774 c -2.98178,-1.52169 -13.56725,-8.9086 -23.52327,-16.41535 -9.95601,-7.50676 -23.98494,-17.66741 -31.17539,-22.57924 -24.07279,-16.4442 -31.28698,-23.12142 -35.91344,-33.24033 -1.86365,-4.07612 -2.26581,-6.73718 -2.28196,-15.09922 -0.0195,-10.0935 0.007,-10.20467 4.69802,-19.61033 10.25447,-20.56121 32.70668,-42.72358 64.67563,-63.8407 l 11.06509,-7.30905 14.57919,1.91076 c 8.01855,1.05093 16.41199,1.92058 18.6521,1.93257 2.2401,0.012 4.50283,0.43165 5.02829,0.93258 0.52545,0.50093 5.48083,3.50646 11.01195,6.67897 30.74537,17.63473 47.43764,38.64361 49.42994,62.21247 1.22143,14.44947 -4.53294,32.04463 -15.48774,47.35693 -14.3688,20.08428 -45.53928,53.86552 -53.26105,57.72205 -5.76434,2.87891 -10.9575,2.68537 -17.49736,-0.65211 z"
       id="path849"
       inkscape:connector-curvature="0"
       transform="matrix(0.26458333,0,0,0.26458333,0,177)" />
    <path
       style="fill:none;stroke:#000000;stroke-width:0.26458332px;stroke-linecap:butt;stroke-linejoin:miter;stroke-opacity:1"
       d="M 93.926355,236.59976 98.7158,232.34248"
       id="path853"
       inkscape:connector-curvature="0" />
    <path
       style="fill:#c83737;fill-opacity:1;stroke:#0000dc;stroke-width:1.00724161;stroke-miterlimit:4;stroke-dasharray:none;stroke-opacity:1"
       d="m 323.79863,205.21024 c -70.26708,-42.45932 -118.25734,-74.04253 -114.44006,-75.31496 1.53157,-0.51052 14.31724,4.30941 30.46762,11.48564 8.02012,3.56366 40.86464,20.30778 72.98782,37.20917 l 58.40578,30.7298 -5.10591,4.61555 c -2.80825,2.53855 -6.46355,5.85241 -8.12288,7.36414 l -3.01698,2.74858 z"
       id="path855"
       inkscape:connector-curvature="0"
       transform="matrix(0.26458333,0,0,0.26458333,0,177)" />
    <text
       xml:space="preserve"
       style="font-style:normal;font-weight:normal;font-size:10.58333302px;line-height:1.25;font-family:sans-serif;letter-spacing:0px;word-spacing:0px;fill:#000000;fill-opacity:1;stroke:none;stroke-width:0.26458332"
       x="116.01103"
       y="188.17314"
       id="text859"><tspan
         sodipodi:role="line"
         id="tspan857"
         x="116.01103"
         y="188.17314"
         style="stroke-width:0.26458332">$s_{xy} = juanesgay$</tspan></text>
    <path
       style="fill:none;stroke:#000000;stroke-width:0.26458332px;stroke-linecap:butt;stroke-linejoin:miter;stroke-opacity:1"
       d="m 96.587161,254.69323 c 0,0 -67.584404,43.10501 -58.803754,41.50853 8.78065,-1.59648 73.172093,-25.01155 62.262793,-38.31557"
       id="path861"
       inkscape:connector-curvature="0" />
    <path
       style="fill:#ffdd55;stroke:#000000;stroke-width:0.26458332px;stroke-linecap:butt;stroke-linejoin:miter;stroke-opacity:1"
       d="m 131.1776,260.81307 64.9236,23.68115 c 0,0 -6.65201,17.82739 -26.34195,6.38593 -19.68994,-11.44145 -42.83893,-25.80979 -42.83893,-25.80979"
       id="path863"
       inkscape:connector-curvature="0" />
    <path
       style="fill:#ffdd55;fill-opacity:1;stroke:#0000dc;stroke-width:1.00724161;stroke-miterlimit:4;stroke-dasharray:none;stroke-opacity:1"
       d="M 143.84912,446.27988 C 157.29153,431.95447 240.78148,374.5658 351.2237,303.73634 l 11.33456,-7.26914 4.25314,3.43365 c 2.33923,1.8885 6.15696,4.6736 8.48384,6.18909 7.00449,4.56202 8.18782,13.0449 3.25331,23.32189 -2.98246,6.21149 -17.82186,21.02966 -28.99509,28.95361 -40.01077,28.37526 -130.16482,69.1843 -193.50235,87.59058 -15.03959,4.3706 -16.0238,4.39671 -12.20199,0.32386 z"
       id="path865"
       inkscape:connector-curvature="0"
       transform="matrix(0.26458333,0,0,0.26458333,0,177)" />
    <path
       style="fill:none;stroke:#000000;stroke-width:0.26458332px;stroke-linecap:butt;stroke-linejoin:miter;stroke-opacity:1"
       d="m 117.17321,269.63532 c 0,0 -6.48379,5.01393 -3.29083,10.06946 3.19297,5.05552 23.66885,-3.18706 3.45289,-9.57594"
       id="path867"
       inkscape:connector-curvature="0" />
    <path
       style="fill:#ab4609;fill-opacity:1;stroke:#0000dc;stroke-width:1.00724161;stroke-miterlimit:4;stroke-dasharray:none;stroke-opacity:1"
       d="m 437.58133,392.14155 c -4.12289,-1.32851 -6.3726,-3.68939 -8.2834,-8.69275 -2.90084,-7.59575 -0.0933,-17.01792 7.71372,-25.88712 l 4.00505,-4.54998 3.45804,1.44486 c 1.90193,0.79467 4.45705,1.44486 5.67806,1.44486 3.52658,0 16.59084,6.92439 20.83472,11.04294 2.1305,2.06758 4.17792,4.97159 4.54981,6.45335 2.18492,8.70541 -11.90752,18.39564 -28.04277,19.28276 -3.87179,0.21287 -8.33274,-0.0296 -9.91323,-0.53892 z"
       id="path869"
       inkscape:connector-curvature="0"
       transform="matrix(0.26458333,0,0,0.26458333,0,177)" />
  </g>
</svg>
