<?xml version="1.0" encoding="UTF-8" standalone="no"?>
<!-- Created with Inkscape (http://www.inkscape.org/) -->

<svg
   xmlns:dc="http://purl.org/dc/elements/1.1/"
   xmlns:cc="http://creativecommons.org/ns#"
   xmlns:rdf="http://www.w3.org/1999/02/22-rdf-syntax-ns#"
   xmlns:svg="http://www.w3.org/2000/svg"
   xmlns="http://www.w3.org/2000/svg"
   xmlns:sodipodi="http://sodipodi.sourceforge.net/DTD/sodipodi-0.dtd"
   xmlns:inkscape="http://www.inkscape.org/namespaces/inkscape"
   width="240mm"
   height="120mm"
   viewBox="0 0 240 120"
   version="1.1"
   id="svg8"
   inkscape:version="0.92.3 (2405546, 2018-03-11)"
   sodipodi:docname="reaction.svg">
  <defs
     id="defs2" />
  <sodipodi:namedview
     id="base"
     pagecolor="#ffffff"
     bordercolor="#666666"
     borderopacity="1.0"
     inkscape:pageopacity="0.0"
     inkscape:pageshadow="2"
     inkscape:zoom="0.99437388"
     inkscape:cx="183.71047"
     inkscape:cy="253.1166"
     inkscape:document-units="mm"
     inkscape:current-layer="layer1"
     showgrid="false"
     showborder="true"
     width="200mm"
     showguides="false"
     inkscape:guide-bbox="true"
     inkscape:window-width="1920"
     inkscape:window-height="1031"
     inkscape:window-x="0"
     inkscape:window-y="0"
     inkscape:window-maximized="1">
    <inkscape:grid
       type="xygrid"
       id="grid815"
       units="mm"
       spacingx="10"
       spacingy="10"
       empspacing="4"
       dotted="false" />
  </sodipodi:namedview>
  <metadata
     id="metadata5">
    <rdf:RDF>
      <cc:Work
         rdf:about="">
        <dc:format>image/svg+xml</dc:format>
        <dc:type
           rdf:resource="http://purl.org/dc/dcmitype/StillImage" />
        <dc:title></dc:title>
      </cc:Work>
    </rdf:RDF>
  </metadata>
  <g
     inkscape:label="Layer 1"
     inkscape:groupmode="layer"
     id="layer1"
     transform="translate(0,-177)">
    <ellipse
       style="fill:#280b0b;fill-opacity:1;stroke:#0000dc;stroke-width:0.26499999;stroke-miterlimit:4;stroke-dasharray:none;stroke-opacity:1"
       id="path816"
       cx="114.14846"
       cy="231.54424"
       rx="36.186928"
       ry="32.4618" />
    <ellipse
       style="fill:#ffff00;fill-opacity:1;stroke:#0000dc;stroke-width:0.26499999;stroke-miterlimit:4;stroke-dasharray:none;stroke-opacity:1"
       id="path818"
       cx="99.780121"
       cy="219.30455"
       rx="5.3216066"
       ry="6.1198473" />
    <ellipse
       style="fill:#ffff00;fill-opacity:1;stroke:#0000dc;stroke-width:0.26499999;stroke-miterlimit:4;stroke-dasharray:none;stroke-opacity:1"
       id="path818-6"
       cx="123.1952"
       cy="220.63495"
       rx="5.3216066"
       ry="6.1198478" />
    <ellipse
       style="fill:#ffff00;fill-opacity:1;stroke:#0000dc;stroke-width:0.26499999;stroke-miterlimit:4;stroke-dasharray:none;stroke-opacity:1"
       id="path837"
       cx="115.34583"
       cy="250.16986"
       rx="9.4458523"
       ry="8.7806511" />
    <ellipse
       style="fill:#ffff00;fill-opacity:1;stroke:#0000dc;stroke-width:0.26499999;stroke-miterlimit:4;stroke-dasharray:none;stroke-opacity:1"
       id="path839"
       cx="112.68502"
       cy="233.53984"
       rx="0.66520083"
       ry="3.3260038" />
    <path
       style="fill:#782121;fill-opacity:1;stroke:#0000dc;stroke-width:1.00724161;stroke-miterlimit:4;stroke-dasharray:none;stroke-opacity:1"
       d="m 408.2739,326.15079 c -43.4063,-6.70166 -81.20025,-32.66487 -99.9161,-68.63909 -16.45906,-31.63638 -16.79135,-69.57782 -0.88662,-101.23338 8.25173,-16.42363 26.5084,-36.98386 41.97173,-47.26756 15.87627,-10.558341 34.88342,-18.282025 54.80835,-22.271751 13.63671,-2.730585 42.70575,-2.496175 56.4215,0.454977 28.03938,6.033099 50.12172,17.333884 69.16333,35.394784 24.75696,23.48191 37.18374,51.57796 37.1407,83.97244 -0.0791,59.48357 -47.82087,109.90547 -113.2646,119.62293 -12.69191,1.88456 -33.11312,1.86958 -45.43829,-0.0334 z m 43.11311,-18.83482 c 7.07063,-3.23704 14.17156,-9.80273 17.56295,-16.23911 2.34677,-4.45385 2.67097,-6.22751 2.67277,-14.62242 0.002,-8.06516 -0.3612,-10.23527 -2.32933,-13.92777 -5.50367,-10.32564 -15.13204,-17.22903 -27.14599,-19.46326 -15.12359,-2.81252 -31.44082,4.92019 -38.93569,18.45157 -2.72058,4.91177 -2.98285,6.22642 -2.98031,14.93946 0.002,8.02673 0.37096,10.24414 2.30629,13.87311 4.9068,9.20086 13.53032,16.2471 23.26416,19.00906 6.97727,1.97978 18.90464,1.03779 25.58515,-2.02064 z m -23.39883,-82.90433 c 1.43223,-3.7373 0.76958,-21.90934 -0.8582,-23.53446 -2.50801,-2.50389 -3.75752,0.85072 -4.10169,11.01196 -0.32377,9.55857 0.74231,15.28806 2.84462,15.28806 0.5805,0 1.53236,-1.2445 2.11527,-2.76556 z m 48.41068,-39.07208 c 13.34284,-9.3777 13.13875,-32.55066 -0.36018,-40.89642 -6.12523,-3.78694 -10.85611,-4.44383 -16.49491,-2.29035 -9.14065,3.49084 -14.50393,11.77277 -14.54127,22.45451 -0.0355,10.16209 4.44265,18.30352 12.25068,22.27198 6.03855,3.06913 13.43436,2.47435 19.14568,-1.53972 z m -88.4979,-5.02829 c 13.34284,-9.3777 13.13876,-32.55066 -0.36018,-40.89642 -6.12523,-3.78694 -10.85611,-4.44383 -16.49491,-2.29035 -9.14065,3.49084 -14.50393,11.77277 -14.54127,22.45451 -0.0355,10.16209 4.44265,18.30352 12.25068,22.27198 6.03855,3.06913 13.43436,2.47435 19.14568,-1.53972 z"
       id="path841"
       inkscape:connector-curvature="0"
       transform="matrix(0.26458333,0,0,0.26458333,0,177)" />
    <path
       style="fill:#2b1100;stroke:#000000;stroke-width:0.26458332px;stroke-linecap:butt;stroke-linejoin:miter;stroke-opacity:1"
       d="m 108.02247,263.29405 0.5383,17.74113 15.96482,-0.79824 -0.79824,-17.02914 z"
       id="path843"
       inkscape:connector-curvature="0" />
    <text
       xml:space="preserve"
       style="font-style:normal;font-weight:normal;font-size:10.58333302px;line-height:1.25;font-family:sans-serif;letter-spacing:0px;word-spacing:0px;fill:#000000;fill-opacity:1;stroke:none;stroke-width:0.26458332"
       x="177.74167"
       y="224.89223"
       id="text847"><tspan
         sodipodi:role="line"
         id="tspan845"
         x="177.74167"
         y="224.89223"
         style="stroke-width:0.26458332">Colission!</tspan></text>
    <path
       style="fill:none;stroke:#e00000;stroke-width:0.26458332px;stroke-linecap:butt;stroke-linejoin:miter;stroke-opacity:1"
       d="m 141.82082,252.83066 41.50853,-15.16658 c 6.7857,8.10212 97.45803,-23.66337 19.42386,-23.68114 -14.30413,-0.003 -31.92964,-3.45905 -33.26004,2.92688 -1.3304,6.38593 28.4706,9.04673 -27.67235,35.92084 z"
       id="path849"
       inkscape:connector-curvature="0"
       sodipodi:nodetypes="ccssc" />
    <path
       style="fill:#ff0000;fill-opacity:1;stroke:none;stroke-width:1.00724161;stroke-miterlimit:4;stroke-dasharray:none;stroke-opacity:1"
       d="m 424.96348,307.17865 c -9.62781,-3.1292 -17.87754,-10.76089 -21.78488,-20.15283 -2.17048,-5.2171 -1.60145,-18.57344 1.00339,-23.55161 3.18427,-6.08553 10.33158,-12.75481 16.92982,-15.79751 5.3475,-2.46594 7.52679,-2.89115 14.81768,-2.89115 7.29089,0 9.47018,0.42521 14.81768,2.89115 7.28355,3.35873 14.49554,10.49524 17.52324,17.33985 2.97657,6.72904 2.77679,16.77835 -0.47476,23.88067 -3.14433,6.86812 -9.61971,13.25947 -16.78129,16.56352 -6.79969,3.1371 -19.17376,3.9531 -26.05088,1.71791 z"
       id="path870"
       inkscape:connector-curvature="0"
       transform="matrix(0.26458333,0,0,0.26458333,0,177)" />
    <path
       style="fill:#ff0000;fill-opacity:1;stroke:none;stroke-width:1.00724161;stroke-miterlimit:4;stroke-dasharray:none;stroke-opacity:1"
       d="m 420.86398,304.9802 c -6.83446,-3.45933 -12.98619,-9.50233 -15.99001,-15.7074 -2.99694,-6.19085 -3.14562,-18.80216 -0.29694,-25.18571 2.19789,-4.92519 10.05483,-12.57727 16.37616,-15.94918 3.82614,-2.04092 5.8292,-2.35604 14.9763,-2.35604 9.81821,0 10.93631,0.20878 15.92898,2.9743 19.79623,10.96548 24.03681,34.04568 9.01524,49.06725 -6.99014,6.99014 -12.58604,9.18769 -24.44139,9.5983 -9.35792,0.32411 -10.4395,0.15449 -15.56834,-2.44152 z"
       id="path872"
       inkscape:connector-curvature="0"
       transform="matrix(0.26458333,0,0,0.26458333,0,177)" />
    <path
       style="fill:#ff0000;fill-opacity:1;stroke:none;stroke-width:1.00724161;stroke-miterlimit:4;stroke-dasharray:none;stroke-opacity:1"
       d="m 421.13293,305.22664 c -6.59838,-3.14435 -13.911,-10.38831 -16.58181,-16.42611 -2.77386,-6.27076 -2.79205,-18.39574 -0.0369,-24.57152 2.46538,-5.52617 10.76326,-13.29508 17.60008,-16.47812 4.28767,-1.99622 6.87345,-2.45402 13.90595,-2.46202 7.62996,-0.009 9.35606,0.34855 14.77975,3.05881 20.81052,10.39913 25.47177,34.07765 9.79454,49.75487 -6.8496,6.8496 -12.06488,8.85096 -24.16225,9.27225 -9.04558,0.315 -10.58365,0.0991 -15.29939,-2.14816 z"
       id="path874"
       inkscape:connector-curvature="0"
       transform="matrix(0.26458333,0,0,0.26458333,0,177)" />
    <path
       style="fill:#ff8080;fill-opacity:1;stroke:#e00000;stroke-width:1.00724161;stroke-miterlimit:4;stroke-dasharray:none;stroke-opacity:1"
       d="m 421.13293,305.22664 c -6.27628,-2.99086 -13.39212,-9.84508 -16.45945,-15.85431 -3.03484,-5.94559 -3.14558,-18.44643 -0.22149,-25.00257 2.5207,-5.65166 10.76238,-13.40644 17.66234,-16.61887 4.27456,-1.99011 6.87783,-2.4539 13.81516,-2.46123 7.31509,-0.008 9.41916,0.40306 14.58698,2.84789 8.2626,3.90892 16.00282,12.41658 18.21278,20.01858 4.20827,14.47593 -3.39137,30.36064 -17.59179,36.77024 -3.4527,1.55844 -7.23567,2.18831 -14.70514,2.44843 -9.04558,0.315 -10.58365,0.0991 -15.29939,-2.14816 z"
       id="path876"
       inkscape:connector-curvature="0"
       transform="matrix(0.26458333,0,0,0.26458333,0,177)" />
    <path
       style="fill:#ffffff;fill-opacity:1;stroke:#e00000;stroke-width:1.00724161;stroke-miterlimit:4;stroke-dasharray:none;stroke-opacity:1"
       d="m 458.55679,185.42718 c -7.82176,-4.21785 -11.7439,-11.17663 -11.69809,-20.75511 0.0996,-20.82724 22.8333,-29.7055 33.76513,-13.18639 9.27677,14.01815 1.38535,34.07814 -13.8429,35.18866 -3.50474,0.25558 -6.19353,-0.15216 -8.22414,-1.24716 z"
       id="path878"
       inkscape:connector-curvature="0"
       transform="matrix(0.26458333,0,0,0.26458333,0,177)" />
    <path
       style="fill:#ffffff;fill-opacity:1;stroke:#e00000;stroke-width:1.00724161;stroke-miterlimit:4;stroke-dasharray:none;stroke-opacity:1"
       d="m 370.05889,180.39889 c -7.82176,-4.21785 -11.7439,-11.17663 -11.69809,-20.75511 0.0996,-20.82724 22.8333,-29.7055 33.76513,-13.18639 9.27677,14.01815 1.38535,34.07814 -13.8429,35.18866 -3.50474,0.25559 -6.19353,-0.15216 -8.22414,-1.24716 z"
       id="path880"
       inkscape:connector-curvature="0"
       transform="matrix(0.26458333,0,0,0.26458333,0,177)" />
    <path
       style="fill:#ffffff;fill-opacity:1;stroke:#e00000;stroke-width:1.00724161;stroke-miterlimit:4;stroke-dasharray:none;stroke-opacity:1"
       d="m 429.19124,215.10931 c 0,-3.04212 0.18853,-4.28662 0.41895,-2.76556 0.23042,1.52105 0.23042,4.01006 0,5.53112 -0.23042,1.52105 -0.41895,0.27655 -0.41895,-2.76556 z"
       id="path882"
       inkscape:connector-curvature="0"
       transform="matrix(0.26458333,0,0,0.26458333,0,177)" />
    <path
       style="fill:#241c1c;fill-opacity:1;stroke:#e00000;stroke-width:1.00724161;stroke-miterlimit:4;stroke-dasharray:none;stroke-opacity:1"
       d="m 425.57121,223.42066 c -0.80801,-1.24779 -1.16148,-18.24563 -0.39535,-19.01176 0.22505,-0.22505 1.10582,-0.14185 1.95728,0.18489 2.03084,0.77931 2.87493,5.43072 1.45006,7.99067 -0.619,1.11211 -1.3689,4.28475 -1.66646,7.05031 -0.3268,3.03746 -0.85953,4.53639 -1.34553,3.78589 z"
       id="path884"
       inkscape:connector-curvature="0"
       transform="matrix(0.26458333,0,0,0.26458333,0,177)" />
    <path
       style="fill:#241c1c;fill-opacity:1;stroke:#e00000;stroke-width:1.00724161;stroke-miterlimit:4;stroke-dasharray:none;stroke-opacity:1"
       d=""
       id="path886"
       inkscape:connector-curvature="0"
       transform="matrix(0.26458333,0,0,0.26458333,0,177)" />
    <path
       style="fill:#241c1c;fill-opacity:1;stroke:#000000;stroke-width:1.00724161;stroke-miterlimit:4;stroke-dasharray:none;stroke-opacity:1"
       d=""
       id="path888"
       inkscape:connector-curvature="0"
       transform="matrix(0.26458333,0,0,0.26458333,0,177)" />
    <path
       style="fill:#241c1c;fill-opacity:1;stroke:#000000;stroke-width:0.26499999;stroke-miterlimit:4;stroke-dasharray:none;stroke-opacity:1"
       id="path892"
       d="m 79.455498,216.18124 c 0.286978,-0.6999 0.620202,-1.37908 0.960449,-2.05422 0.320296,-0.56277 0.658248,-1.11208 0.923271,-1.70362 0.23041,-0.53485 0.330594,-1.10955 0.536877,-1.65293 0.208388,-0.43872 0.437583,-0.86557 0.645596,-1.30466 0.177401,-0.42369 0.339588,-0.85595 0.545523,-1.26685 0.172861,-0.37051 0.358627,-0.72897 0.491784,-1.11618 0.563475,-1.45571 2.615234,-3.4959 4.124222,-2.52678 0.317026,0.27944 0.407127,0.70681 0.625395,1.05466 0.07252,0.1035 0.120957,0.22241 0.192686,0.32643 0.120756,0.17511 0.142721,-0.0659 0.121592,-0.0548 -1.136563,0.59647 -2.244122,1.24664 -3.366185,1.86996 0.02981,-0.0179 0.06773,-0.0266 0.08942,-0.0538 0.145396,-0.18234 0.305205,-0.55815 0.43503,-0.77594 0.182103,-0.42217 0.532387,-0.71956 0.854724,-1.03233 0.408238,-0.53498 0.961167,-0.9092 1.387218,-1.43007 0.522777,-0.56682 1.040217,-1.1272 1.515806,-1.73475 0.433311,-0.52153 0.977386,-0.92874 1.464154,-1.39477 0.299466,-0.39975 0.656021,-0.71474 1.057724,-1.00247 1.19239,-0.6762 2.387585,-1.34749 3.57717,-2.02862 0.326199,-0.18677 0.590634,-0.27938 0.968438,-0.33113 0.625277,-0.0827 0.919329,-0.0627 1.439849,0.31431 0.381776,0.35884 0.464953,0.88657 0.668309,1.34679 0.214868,0.41941 0.296823,0.88387 0.446019,1.32686 0.165182,0.46189 0.29628,0.9326 0.433107,1.40327 0.02511,0.0842 0.06171,0.30203 0.15794,0.3782 0.07186,0.0569 0.255424,-0.25594 0.174937,-0.2121 -1.110075,0.60462 -2.190842,1.26157 -3.286262,1.89235 0.300032,-0.31173 0.447148,-0.73604 0.615928,-1.12773 0.161669,-0.47619 0.190344,-0.96895 0.410795,-1.42563 0.222324,-0.41557 0.536723,-0.76442 0.843061,-1.11753 0.302146,-0.24508 0.591214,-0.49079 0.842988,-0.79034 0.263758,-0.33316 0.598337,-0.58482 0.925187,-0.85039 1.65973,-0.62111 3.02525,-2.04281 4.7429,-2.60354 0.57505,-0.18506 1.01862,0.26157 1.37301,0.66035 0.35194,0.30114 0.52063,0.72985 0.71274,1.13792 0.20503,0.33598 0.41325,0.6739 0.57785,1.03203 0.15774,0.33673 0.40236,0.60926 0.62979,0.89744 0.2585,0.22727 0.36506,0.59636 0.63937,0.16592 1.14737,-0.83613 -0.0577,0.0488 -3.12083,1.78867 -0.0477,0.0271 0.0883,-0.0664 0.12483,-0.10732 0.12593,-0.14103 0.19389,-0.33676 0.28155,-0.50171 0.22309,-0.37591 0.40676,-0.77643 0.67107,-1.12592 0.30572,-0.34548 0.53186,-0.74982 0.81737,-1.11093 0.2694,-0.35267 0.50178,-0.73124 0.78568,-1.07276 0.21158,-0.34713 0.46286,-0.64661 0.7752,-0.90694 1.46041,-0.92926 2.83395,-2.17667 4.58062,-2.33921 0.24623,0.0194 0.51813,-0.0739 0.76275,-0.0274 0.23759,0.0451 0.49433,0.20816 0.7186,0.29995 0.56517,0.30855 1.00685,0.77903 1.48118,1.20316 0.47616,0.28954 0.86047,0.69531 1.28236,1.05379 0.42152,0.33216 0.73472,0.76835 1.22125,1.0093 0.28733,0.0882 0.60058,0.21754 0.88345,0.0536 0.0699,-0.0405 0.26195,-0.18808 0.19136,-0.14877 -1.07303,0.59746 -2.13399,1.21635 -3.20099,1.82452 0.38651,-0.18968 0.55706,-0.49303 0.74953,-0.85456 0.1906,-0.34387 0.38492,-0.68582 0.58576,-1.02434 0.20875,-0.35984 0.53957,-0.59017 0.84587,-0.85772 1.47104,-0.98226 3.00104,-2.21175 4.79869,-2.49643 0.53536,-0.0659 1.07582,-0.0643 1.61431,-0.0655 0.5711,0.14112 1.05209,0.42004 1.54283,0.72735 0.36113,0.19824 0.62819,0.51578 0.93709,0.77559 0.16429,0.13818 0.35197,0.24596 0.52466,0.37349 0.44499,0.39863 0.87113,0.81716 1.31411,1.21749 0.35465,0.3438 0.60501,0.77322 0.93263,1.13934 0.33337,0.21834 0.5451,0.56293 0.82121,0.84122 0.32817,0.14736 0.47373,0.3034 0.69107,0.57778 0.22832,0.15317 0.44205,0.20558 0.62084,0.42282 0.43531,0.45315 0.13932,0.35047 0.58676,0.19227 0.34752,-0.0449 0.64344,-0.20403 0.97858,-0.29252 0.54635,-0.0423 1.03727,-0.28052 1.5564,-0.43427 0.56234,-0.15579 1.14515,-0.1911 1.7252,-0.21039 0.2621,0.0336 0.55049,-0.0585 0.81055,-0.008 0.24055,0.0471 0.49766,0.21019 0.72469,0.30372 0.4394,0.10137 0.70481,0.47507 1.11483,0.63853 0.35452,0.18654 0.56139,0.54811 0.89859,0.75468 0.36639,0.22762 0.61882,0.56108 0.90097,0.87772 0.31132,0.35803 0.41627,0.82238 0.57619,1.25651 0.16855,0.4656 0.20955,0.95927 0.23686,1.44954 0.0271,0.44555 0.0188,0.89207 0.0222,1.33815 0.001,0.38221 -0.30131,0.65674 -0.35376,1.02446 0.0579,0.11231 0.42988,0.078 0.56555,0.0831 0.14275,0.11645 0.36751,0.1096 0.51281,0.21647 0.0704,0.0518 0.12334,0.12483 0.19336,0.17718 0.2332,0.16109 0.3955,0.38831 0.60536,0.57276 0.18032,0.15172 0.17876,0.46975 0.39674,0.57151 0.25535,0.21122 0.35862,0.49806 0.42478,0.81282 0.11038,0.302 0.19685,0.60936 0.25778,0.92499 0,0 -3.50242,1.85933 -3.50242,1.85933 v 0 c -0.046,-0.31834 -0.12419,-0.62757 -0.25653,-0.92214 -0.0323,-0.23732 -0.0834,-0.42336 -0.2892,-0.56727 -0.17698,-0.17889 -0.26825,-0.39272 -0.40955,-0.59371 -0.18951,-0.18748 -0.36032,-0.3929 -0.58698,-0.53951 -0.15888,-0.12598 -0.37698,-0.19303 -0.57748,-0.21417 -0.38566,-0.0617 -0.75097,-0.18248 -0.87603,-0.59617 -0.009,-0.38826 0.0884,-0.73331 0.37096,-1.0146 0.005,-0.44128 0.002,-0.88268 -0.006,-1.32391 -0.0186,-0.45163 -0.0404,-0.90905 -0.18655,-1.34104 -0.14144,-0.38917 -0.22487,-0.81062 -0.50233,-1.131 -0.25806,-0.29959 -0.51792,-0.58235 -0.85624,-0.79604 -0.29121,-0.22933 -0.51993,-0.53854 -0.86053,-0.70063 -0.37081,-0.20572 -0.67274,-0.51583 -1.0963,-0.6209 -0.48899,-0.19672 -0.90547,-0.21071 -1.43184,-0.15866 -0.56217,0.0367 -1.12296,0.10422 -1.65924,0.28685 -0.51932,0.17298 -1.04,0.32176 -1.57241,0.44632 -0.33017,0.12084 -0.66858,0.198 -1.01564,0.25562 -0.3883,0.0134 -0.56992,-0.25291 -0.81112,-0.51653 -0.20127,-0.15996 -0.48242,-0.2244 -0.63756,-0.45273 -0.18316,-0.23716 -0.43629,-0.35372 -0.66395,-0.55001 -0.26848,-0.29434 -0.5125,-0.61087 -0.82683,-0.86028 -0.30415,-0.36633 -0.55917,-0.77284 -0.90257,-1.10594 -0.42083,-0.40178 -0.84429,-0.80079 -1.28073,-1.18559 -0.49471,-0.36415 -0.93567,-0.78962 -1.45657,-1.11798 -0.43201,-0.27329 -0.89353,-0.51229 -1.4149,-0.54217 -0.52449,0.008 -1.05337,0.0159 -1.56802,0.12894 -0.25152,0.0672 -0.48735,0.14196 -0.7205,0.26023 -0.0756,0.0383 -0.29575,0.16565 -0.22242,0.12316 3.18409,-1.84529 4.2784,-2.32973 2.96032,-1.73629 -0.17661,0.11634 -0.30366,0.27764 -0.47548,0.39474 -0.16304,0.11111 -0.32727,0.15303 -0.40671,0.36124 -0.27221,0.27954 -0.37084,0.65668 -0.6189,0.95368 -0.0275,0.063 -0.055,0.1259 -0.0824,0.18884 -0.0331,0.0549 -0.073,0.10617 -0.0993,0.16461 -0.12482,0.27723 -0.18791,0.54763 -0.49005,0.69533 -1.65275,0.9598 -3.045,2.7617 -4.86568,1.86477 -0.47101,-0.30167 -0.82468,-0.72885 -1.25925,-1.07779 -0.41515,-0.37246 -0.83205,-0.73984 -1.28811,-1.0623 -0.43065,-0.40776 -0.85095,-0.8475 -1.40873,-1.08013 -0.47353,-0.18746 -0.85594,-0.20081 -1.36076,-0.10118 -0.18024,0.0375 -0.25841,0.0463 -0.4296,0.11099 -0.0638,0.0241 -0.24552,0.11864 -0.18666,0.0841 5.7714,-3.38679 3.97132,-2.41556 2.89007,-1.65038 -0.35562,0.142 -0.67221,0.42204 -0.833,0.77108 -0.25695,0.35988 -0.56458,0.68025 -0.78921,1.06522 -0.26426,0.38436 -0.57275,0.73629 -0.81114,1.14054 -0.0551,0.056 -0.25569,0.25402 -0.30502,0.32513 -0.15476,0.22303 -0.18613,0.51819 -0.4005,0.70416 -0.78039,1.76727 -0.99851,1.75803 -3.99334,2.92526 -0.43267,-0.0111 -0.66388,-0.29609 -0.93261,-0.60422 -0.25243,-0.31057 -0.50153,-0.62136 -0.67775,-0.98394 -0.15943,-0.35877 -0.37707,-0.69001 -0.57461,-1.02854 -0.17379,-0.37556 -0.32362,-0.75876 -0.64741,-1.03498 -0.37201,-0.38502 -0.58237,-0.50447 -1.10076,-0.27818 -1.41755,0.62011 -3.868579,2.21516 2.0384,-1.28551 -0.65005,0.42114 0.29334,-0.20437 -0.34686,0.26939 -0.21284,0.15751 -0.46317,0.27414 -0.59841,0.51778 -0.29433,0.25614 -0.46692,0.64433 -0.84256,0.79958 -0.34793,0.28584 -0.63582,0.65899 -0.88979,1.02784 -0.34354,0.45498 -0.32086,0.82224 -0.4366,1.35967 -0.14419,0.43383 -0.35264,0.84508 -0.54197,1.25952 -0.717563,0.43406 -3.555256,3.50372 -4.165769,1.36996 -0.147161,-0.46262 -0.259345,-0.93573 -0.434816,-1.38941 -0.145476,-0.43252 -0.223817,-0.8836 -0.424043,-1.29656 -0.172032,-0.38424 -0.235431,-0.85302 -0.552103,-1.14698 -0.408197,-0.21456 -0.824317,-0.16689 -1.264875,-0.0642 -1.381969,0.39516 -3.72559,2.38398 2.294736,-1.45715 -0.436581,0.22631 -0.824634,0.50069 -1.122169,0.90273 -0.408943,0.54026 -1.012555,0.88842 -1.473888,1.3843 -0.251478,0.28842 -0.44795,0.61772 -0.698645,0.90459 -0.255691,0.29258 -0.581544,0.52426 -0.826127,0.82844 -0.160909,0.20342 -0.285801,0.43519 -0.458682,0.62855 -0.264533,0.29586 -0.682551,0.4396 -0.914644,0.77221 -0.04343,0.0849 -0.07074,0.18025 -0.130294,0.25475 -0.04452,0.0557 -0.119993,0.078 -0.173431,0.12518 -0.203772,0.17997 -0.412441,0.35978 -0.568204,0.58633 -0.132757,0.33502 -0.409329,0.59345 -0.451895,0.95529 -2.536383,1.44869 -3.039417,3.10668 -4.046254,1.35695 -0.162994,-0.26795 -0.247531,-0.64781 -0.498554,-0.83167 -1.368764,0.0942 0.03319,0.0105 3.254636,-1.87894 0.04727,-0.0277 -0.115215,-0.007 -0.163216,0.0197 -0.181065,0.0997 -0.247438,0.35117 -0.325935,0.52174 -0.101925,0.19314 -0.130577,0.39089 -0.215368,0.59098 -0.252325,0.59543 0.07236,-0.21102 -0.19526,0.3369 -0.0323,0.0661 -0.04881,0.13886 -0.07322,0.20829 -0.199729,0.41224 -0.412901,0.81954 -0.559383,1.25508 -0.186906,0.45347 -0.419809,0.88021 -0.635735,1.31659 -0.311729,0.49949 -0.344114,1.10109 -0.560091,1.6417 -0.247862,0.60933 -0.546994,1.18632 -0.914657,1.7336 -0.354817,0.65303 -0.696267,1.32269 -0.955744,2.01865 0,0 -3.588969,1.64924 -3.588969,1.64924 z"
       inkscape:connector-curvature="0" />
    <ellipse
       style="fill:#ffd5d5;fill-opacity:1;stroke:#000000;stroke-width:0.26499999;stroke-miterlimit:4;stroke-dasharray:none;stroke-opacity:1"
       id="path838"
       cx="38.98077"
       cy="238.32928"
       rx="29.401878"
       ry="29.667955" />
    <ellipse
       style="fill:#280b0b;fill-opacity:1;stroke:#000000;stroke-width:0.26499999;stroke-miterlimit:4;stroke-dasharray:none;stroke-opacity:1"
       id="path842"
       cx="26.075872"
       cy="228.21823"
       rx="5.5876865"
       ry="5.1885667" />
    <ellipse
       style="fill:#280b0b;fill-opacity:1;stroke:#000000;stroke-width:0.26499999;stroke-miterlimit:4;stroke-dasharray:none;stroke-opacity:1"
       id="path842-0"
       cx="50.289185"
       cy="228.08519"
       rx="5.587687"
       ry="5.1885667" />
    <ellipse
       style="fill:#280b0b;fill-opacity:1;stroke:#000000;stroke-width:0.26499999;stroke-miterlimit:4;stroke-dasharray:none;stroke-opacity:1"
       id="path861"
       cx="38.58165"
       cy="243.65088"
       rx="1.0643213"
       ry="3.8581645" />
    <ellipse
       style="fill:#280b0b;fill-opacity:1;stroke:#000000;stroke-width:0.26499999;stroke-miterlimit:4;stroke-dasharray:none;stroke-opacity:1"
       id="path863"
       cx="99.875732"
       cy="219.61122"
       rx="1.9581621"
       ry="2.9674871" />
    <ellipse
       style="fill:#280b0b;fill-opacity:1;stroke:#000000;stroke-width:0.26499999;stroke-miterlimit:4;stroke-dasharray:none;stroke-opacity:1"
       id="path863-4"
       cx="122.66303"
       cy="220.90103"
       rx="1.9581621"
       ry="2.9674871" />
    <path
       style="fill:#f4eed7;fill-opacity:1;stroke:#000000;stroke-width:1.00724161;stroke-miterlimit:4;stroke-dasharray:none;stroke-opacity:1"
       d="m 180.70774,210.57788 c -4.72607,-2.05342 -10.09829,-8.14642 -10.95835,-12.42863 -1.124,-5.59638 -0.65803,-9.04969 1.90405,-14.1108 5.66591,-11.19244 24.53429,-13.57326 33.83786,-4.26968 4.74272,4.74272 6.70857,14.16887 4.26316,20.44162 -1.45,3.71941 -6.45923,8.68415 -10.44027,10.34754 -4.57747,1.91258 -14.22661,1.92293 -18.60645,0.0199 z"
       id="path881"
       inkscape:connector-curvature="0"
       transform="matrix(0.26458333,0,0,0.26458333,0,177)" />
    <path
       style="fill:#e3e2db;fill-opacity:1;stroke:#000000;stroke-width:1.00724161;stroke-miterlimit:4;stroke-dasharray:none;stroke-opacity:1"
       d="m 91.229038,211.75557 c -14.043617,-5.0932 -18.090932,-22.13049 -7.601122,-31.99713 2.985236,-2.80789 10.773076,-5.88111 14.903327,-5.88111 4.125507,0 11.915647,3.07155 14.915827,5.88111 3.64902,3.41718 5.89372,8.6182 5.94613,13.77732 0.13491,13.27875 -14.92504,23.02125 -28.164162,18.21981 z"
       id="path883"
       inkscape:connector-curvature="0"
       transform="matrix(0.26458333,0,0,0.26458333,0,177)" />
    <path
       style="fill:#e3e2db;fill-opacity:1;stroke:#000000;stroke-width:1.00724161;stroke-miterlimit:4;stroke-dasharray:none;stroke-opacity:1"
       d="m 90.485979,210.18575 c -19.101294,-8.84361 -13.086737,-34.84838 8.045264,-34.7848 11.013527,0.0331 19.610327,8.05324 19.610327,18.29483 0,5.39994 -1.80454,9.07841 -6.45791,13.16412 -6.03224,5.29637 -14.180315,6.57478 -21.197681,3.32585 z"
       id="path885"
       inkscape:connector-curvature="0"
       transform="matrix(0.26458333,0,0,0.26458333,0,177)" />
    <path
       style="fill:#ffffff;fill-opacity:1;stroke:#000000;stroke-width:1.00724161;stroke-miterlimit:4;stroke-dasharray:none;stroke-opacity:1"
       d="m 183.04843,210.35311 c -3.33217,-0.84642 -6.74284,-3.53307 -9.74314,-7.67487 -5.65895,-7.81195 -2.82238,-19.7545 5.82505,-24.5247 11.07474,-6.10917 24.05504,-2.83912 28.61905,7.20982 4.59367,10.11426 0.78609,19.91582 -9.38802,24.16683 -3.55532,1.48551 -11.10684,1.89133 -15.31294,0.82292 z"
       id="path887"
       inkscape:connector-curvature="0"
       transform="matrix(0.26458333,0,0,0.26458333,0,177)" />
    <path
       style="fill:#ffffff;fill-opacity:1;stroke:#000000;stroke-width:1.00724161;stroke-miterlimit:4;stroke-dasharray:none;stroke-opacity:1"
       d="m 90.218793,208.50161 c -8.66561,-4.31826 -12.097306,-12.51139 -8.827039,-21.07447 5.358255,-14.03039 27.126246,-14.62649 33.759286,-0.92447 4.28696,8.8557 1.03265,17.34462 -8.46331,22.07665 -6.37381,3.17621 -9.973248,3.15923 -16.468937,-0.0777 z"
       id="path889"
       inkscape:connector-curvature="0"
       transform="matrix(0.26458333,0,0,0.26458333,0,177)" />
    <path
       style="fill:#ffffff;fill-opacity:1;stroke:#000000;stroke-width:1.00724161;stroke-miterlimit:4;stroke-dasharray:none;stroke-opacity:1"
       d="m 182.50368,209.01562 c -1.38278,-0.58369 -3.79905,-2.2798 -5.36948,-3.76914 -10.37855,-9.84261 -6.00352,-24.58139 8.44368,-28.44543 8.39509,-2.24534 16.51457,1.14303 20.77832,8.67109 4.40386,7.77542 1.80438,17.22489 -5.93503,21.57468 -4.52703,2.54434 -14.06987,3.59291 -17.91749,1.9688 z"
       id="path891"
       inkscape:connector-curvature="0"
       transform="matrix(0.26458333,0,0,0.26458333,0,177)" />
    <ellipse
       style="fill:#2b0000;fill-opacity:1;stroke:#000000;stroke-width:0.26499999;stroke-miterlimit:4;stroke-dasharray:none;stroke-opacity:1"
       id="path893"
       cx="25.771372"
       cy="227.86394"
       rx="1.900983"
       ry="2.7056291" />
    <ellipse
       style="fill:#2b0000;fill-opacity:1;stroke:#000000;stroke-width:0.26499999;stroke-miterlimit:4;stroke-dasharray:none;stroke-opacity:1"
       id="path893-7"
       cx="50.023102"
       cy="228.08519"
       rx="1.9009831"
       ry="2.7056291" />
    <ellipse
       style="fill:#ff2a2a;fill-opacity:1;stroke:#000000;stroke-width:0.26499999;stroke-miterlimit:4;stroke-dasharray:none;stroke-opacity:1"
       id="path910"
       cx="38.448608"
       cy="258.41837"
       rx="5.7207274"
       ry="4.523366" />
    <path
       style="fill:#ffd42a;fill-opacity:1;stroke:#000000;stroke-width:0.26499999;stroke-miterlimit:4;stroke-dasharray:none;stroke-opacity:1"
       id="path914"
       d="m 13.407875,217.5513 c 0.104473,-0.84373 0.596933,-1.54472 0.917923,-2.31036 0.29137,-0.83904 0.777902,-1.5921 1.239972,-2.34539 0.393916,-0.66615 0.875164,-1.25934 1.373887,-1.84683 0.387224,-0.50575 0.746579,-1.03466 1.059274,-1.58976 0.221924,-0.3824 0.467828,-0.75217 0.767755,-1.07787 0.311517,-0.37766 0.627347,-0.75077 0.94103,-1.12683 1.120191,-1.1494 2.763402,-1.68989 4.065327,-2.53284 1.036869,-0.67134 -2.138498,1.23694 -3.210665,1.85033 -0.05883,0.0336 0.113587,-0.074 0.17038,-0.11098 1.369049,-1.06803 2.989118,-1.75132 4.471029,-2.66287 -0.168718,0.15675 0.838528,-0.41424 0.58432,-0.26949 -1.068657,0.60853 -4.251615,2.47351 -3.200303,1.83549 3.258065,-1.97726 2.322625,-1.63149 3.864424,-2.17149 0.5088,-0.28688 1.105311,-0.29978 1.602606,-0.6006 0.442614,-0.24719 0.944168,-0.35089 1.427025,-0.49226 0.520335,-0.13716 1.059024,-0.16346 1.594083,-0.18095 0.490188,0.0438 0.946864,-0.12406 1.425056,-0.19689 0.500912,-0.0629 1.006531,-0.0683 1.51062,-0.0739 0.551238,0.0497 1.075225,-0.0543 1.613519,-0.14848 0.522111,-0.0857 1.051555,-0.10266 1.579454,-0.11396 0.531509,-0.008 1.063096,-0.006 1.594644,-0.005 0.532212,8.5e-4 1.064424,0.001 1.596639,0.001 0.532172,1.7e-4 1.064347,1.7e-4 1.596519,1.7e-4 0.532162,0 1.064321,-1e-5 1.596483,-1e-5 0.532162,0 1.064321,-1e-5 1.596483,-1e-5 0.532159,0 1.06432,0 1.596479,0 0.532162,0 1.064324,0 1.596483,0 0.08869,0 0.178827,-0.0159 0.266081,0 0.05016,0.009 0.51245,0.18422 0.56733,0.2037 0.271055,0.0962 0.53435,0.16525 0.816745,0.21844 0.572892,0.0355 1.123767,0.14707 1.683832,0.26216 0.484682,0.09 0.978601,0.10193 1.470036,0.11182 0.511109,-0.0473 0.990335,0.054 1.485767,0.15438 0.474753,0.0865 0.958231,0.0992 1.439373,0.10998 0.524852,0.12074 1.056053,0.19724 1.592567,0.23839 0.528635,0.0325 1.058524,0.0326 1.587939,0.0338 0.547685,-0.0253 1.077225,-3.2e-4 1.614506,0.10062 0.522026,0.10263 1.05309,0.13489 1.583571,0.15368 0.530225,0.0137 1.060691,0.0119 1.591046,0.0115 0.492855,-0.0208 0.99609,0.0417 1.448316,0.24461 0.440687,0.15089 0.851783,0.39965 1.199798,0.70855 0.341124,0.27707 0.717674,0.50411 1.04418,0.7987 0.309431,0.30366 0.642128,0.56329 0.982253,0.8304 0.395073,0.23599 0.686347,0.60707 0.96235,0.96792 0.286568,0.3948 0.575075,0.78352 0.759553,1.23768 0.315584,0.52252 0.481155,1.11313 0.720272,1.67145 0.279226,0.58718 0.660149,1.1106 1.11119,1.57575 0.307959,0.38055 0.604424,0.77182 0.89712,1.16454 0.396261,0.3846 0.740407,0.81801 1.107225,1.23049 0.341591,0.46469 0.778161,0.85129 1.093613,1.33433 0.160277,0.38939 0.412967,0.72676 0.600385,1.10081 0.249245,0.34402 0.472061,0.7041 0.691052,1.06831 0.308827,0.42792 0.461571,0.91849 0.554413,1.43107 0.06609,0.52739 0.133453,1.06215 -0.02941,1.57598 -0.666795,1.32416 -3.09707,1.98364 -3.818538,2.37031 -0.06745,0.0361 -0.152488,0.0347 -0.228299,0.0243 -0.03323,-0.005 -0.492447,-0.17322 -0.530156,-0.18692 -0.4992,-0.24487 -1.006131,-0.46023 -1.483061,-0.74811 -0.423378,-0.24944 -0.857387,-0.50032 -1.252278,-0.79463 -0.399487,-0.23753 -0.755856,-0.54442 -1.176044,-0.74478 -0.490093,-0.256 -1.002056,-0.46407 -1.503309,-0.69755 -0.502926,-0.16626 -1.019231,-0.30007 -1.536833,-0.41948 -0.563163,-0.11165 -1.140023,-0.11428 -1.711862,-0.12514 -0.632629,0.012 -1.250436,0.0102 -1.872895,-0.10091 -0.55693,-0.13387 -1.130599,-0.24277 -1.67816,-0.4153 -0.505835,-0.1416 -1.022977,-0.20888 -1.481439,-0.47799 -0.405416,-0.18653 -0.792932,-0.39924 -1.182536,-0.6158 -0.444265,-0.29548 -0.978901,-0.40517 -1.477328,-0.58233 -0.450069,-0.11543 -0.897303,-0.25318 -1.324263,-0.43883 -0.443548,-0.12526 -0.775878,-0.4564 -1.181164,-0.65473 -0.26189,-0.17473 -0.564486,-0.25292 -0.840774,-0.39796 0,0 3.298912,-2.17564 3.298912,-2.17564 v 0 c 0.289113,0.12848 0.583166,0.24641 0.854279,0.41172 0.373933,0.22407 0.724188,0.49192 1.150257,0.61549 0.435925,0.15237 0.87181,0.30094 1.314617,0.43172 0.515996,0.18897 1.058534,0.32061 1.518748,0.63487 0.382468,0.22032 0.785476,0.39675 1.175843,0.60213 0.458377,0.19772 0.952309,0.27072 1.427358,0.41858 0.54769,0.13624 1.092893,0.29165 1.65136,0.37613 0.608914,0.0816 1.222303,0.0451 1.835226,0.0638 0.594384,0.0161 1.19392,0.0372 1.772251,0.18916 0.531463,0.14205 1.077267,0.25291 1.577946,0.48596 0.504526,0.2428 1.031827,0.43485 1.521357,0.7084 0.413422,0.24195 0.800671,0.52722 1.202047,0.78855 0.399452,0.27008 0.808558,0.52974 1.229325,0.76507 0.460899,0.2548 0.93439,0.4885 1.430219,0.66777 0.207592,0.0426 0.220675,0.0721 0.417909,0.0207 0.0669,-0.0174 0.253468,-0.1084 0.194093,-0.073 -5.307425,3.16357 -4.103335,2.31876 -2.890665,1.71774 0.05141,-0.0794 0.173381,-0.25183 0.190883,-0.34692 0.06052,-0.32877 -0.05884,-0.69297 -0.05105,-1.02296 -0.06923,-0.4701 -0.19558,-0.91241 -0.48795,-1.29757 -0.224213,-0.37406 -0.458777,-0.7381 -0.709604,-1.09419 -0.177271,-0.36152 -0.42734,-0.68432 -0.572501,-1.06339 -0.302397,-0.46471 -0.718161,-0.84564 -1.044887,-1.29332 -0.378486,-0.41961 -0.754038,-0.84163 -1.146437,-1.24776 -0.284313,-0.37942 -0.556355,-0.76915 -0.860351,-1.13256 -0.471458,-0.50701 -0.867291,-1.07993 -1.172929,-1.70217 -0.238353,-0.56255 -0.423164,-1.14786 -0.745115,-1.6707 -0.15849,-0.42305 -0.439721,-0.77734 -0.704302,-1.13945 -0.262972,-0.33528 -0.54053,-0.65642 -0.908973,-0.88043 -0.353439,-0.26255 -0.66575,-0.56031 -0.995961,-0.84991 -0.33738,-0.27745 -0.705696,-0.51338 -1.041685,-0.7927 -0.338535,-0.263 -0.712748,-0.47107 -1.125411,-0.59414 -0.447095,-0.12008 -0.897226,-0.16368 -1.36044,-0.13663 -0.534032,-7.9e-4 -1.068355,-0.001 -1.601909,-0.0266 -0.54003,-0.0322 -1.077431,-0.0899 -1.609378,-0.19096 -0.523918,-0.0729 -1.051193,-0.0439 -1.578967,-0.0498 -0.536385,-0.005 -1.073584,-0.0107 -1.607974,-0.062 -0.529286,-0.058 -1.050065,-0.16962 -1.579856,-0.21787 -0.496917,-0.0207 -0.994587,-0.0537 -1.481807,-0.1603 -0.478197,-0.0952 -0.955463,-0.10768 -1.44281,-0.10348 -0.507558,-0.0203 -1.016153,-0.0536 -1.512744,-0.16813 -0.555451,-0.12154 -1.117325,-0.17144 -1.676779,-0.26997 -0.533754,-0.13163 -1.045773,-0.38542 -1.606462,-0.34915 -0.53216,0 -1.064321,0 -1.596483,0 -0.532159,0 -1.064321,0 -1.59648,0 -0.532162,0 -1.064321,0 -1.59648,1e-5 -0.532164,0 -1.064326,1e-5 -1.59649,0 -0.53221,-2e-5 -1.064422,-5e-5 -1.596634,-2.7e-4 -0.532228,-2.6e-4 -1.064456,-0.001 -1.596684,-0.002 -0.529193,1e-5 -1.058539,-10e-4 -1.587531,0.0156 -0.51842,0.0218 -1.036402,0.06 -1.547027,0.15709 -0.547272,0.0904 -1.09461,0.10984 -1.649129,0.10164 -0.494761,0.0136 -0.991418,0.0326 -1.478894,0.12564 -0.480587,0.0943 -0.956585,0.16978 -1.449258,0.1541 -0.519978,0.034 -1.039595,0.0919 -1.536249,0.25942 -0.475849,0.15071 -0.954838,0.28333 -1.390457,0.5368 -0.538787,0.19222 -1.100431,0.32045 -1.61153,0.58786 -0.08016,0.0407 -0.317945,0.16766 -0.240478,0.12206 1.048174,-0.61701 4.200949,-2.45396 3.153014,-1.83654 -1.477362,0.87043 -2.694094,1.66823 -4.145939,2.35323 -1.323989,0.61254 -0.101632,0.0546 2.978845,-1.75369 0.06399,-0.0376 -0.136296,0.0596 -0.200116,0.0975 -0.190009,0.1127 -0.173419,0.12999 -0.32865,0.28304 -0.04794,0.0473 -0.09834,0.092 -0.147514,0.13794 -1.464604,0.76026 1.316577,-0.68716 -3.729381,2.16556 -1.072746,0.60647 2.125011,-1.24849 3.189839,-1.86877 0.06106,-0.0356 -0.118916,0.0764 -0.178375,0.11456 -0.220857,0.20538 -0.101902,0.11311 -0.357103,0.2765 -0.349955,0.33882 -0.640094,0.73428 -0.942366,1.11393 -0.274414,0.33365 -0.60221,0.62796 -0.797064,1.02253 -0.368785,0.53391 -0.650897,1.13069 -1.064315,1.63825 -0.228671,0.31425 -0.506183,0.56022 -0.745482,0.86317 -0.109812,0.13901 -0.315482,0.4793 -0.412902,0.62176 -0.07593,0.11103 -0.15728,0.21825 -0.23592,0.32738 -0.474007,0.72584 -0.955328,1.47179 -1.276882,2.27597 -0.114226,0.33074 -0.163572,0.51839 -0.328279,0.82514 -0.23496,0.43758 -0.508751,0.84688 -0.622489,1.34209 0,0 -3.517408,1.79221 -3.517408,1.79221 z"
       inkscape:connector-curvature="0" />
    <path
       style="fill:#ffd42a;fill-opacity:1;stroke:#000000;stroke-width:0.26499999;stroke-miterlimit:4;stroke-dasharray:none;stroke-opacity:1"
       id="path916"
       d="m 19.877138,212.70115 c 0.568745,-0.78368 1.126448,-1.57836 1.715796,-2.34729 0.561459,-0.60271 1.189023,-1.14368 1.822434,-1.66945 0.65776,-0.50739 1.229258,-1.11763 1.82102,-1.69961 0.448711,-0.54354 1.015473,-0.95466 1.553547,-1.40026 1.171988,-0.81627 3.592066,-3.4741 4.577168,-1.60043 0.25274,0.61763 0.05801,1.19962 -0.101476,1.80829 -0.128908,0.61447 -0.218662,1.22833 -0.403736,1.82988 -0.03082,0.10201 -0.06323,0.20356 -0.09246,0.30604 -0.09297,0.32588 -0.05967,0.25287 -0.15966,0.56851 -0.06557,0.20702 -0.09624,0.25238 -0.0987,0.24861 -0.07964,-0.12208 -0.119189,-0.26604 -0.178784,-0.39906 -1.107527,0.61274 -2.212811,1.22955 -3.322579,1.83822 -0.06045,0.0332 0.115604,-0.0752 0.17422,-0.11147 0.07163,-0.0443 0.14364,-0.0881 0.216485,-0.13045 1.202245,-0.69856 2.416164,-1.3773 3.608763,-2.09221 1.02952,-0.61715 -4.169611,2.38027 -3.119469,1.7989 1.222184,-0.67661 2.423773,-1.38978 3.635658,-2.08466 0.636341,-0.29797 1.304396,-0.49286 1.97595,-0.69338 1.195938,-0.37921 2.416347,-0.66626 3.638468,-0.9493 1.49197,-0.43032 2.979862,-0.87178 4.478758,-1.27716 0.238967,-0.0596 0.482598,-0.10282 0.716897,-0.17868 0.502904,-0.16284 0.981379,-0.39494 1.48282,-0.56223 0.761352,-0.254 1.535565,-0.4396 2.317676,-0.6151 0.932497,-0.0962 1.62165,-0.0967 1.783257,0.94696 0.0065,0.65189 -0.374287,1.17564 -0.706252,1.70289 -0.344154,0.56779 -0.752983,1.10463 -1.232768,1.5645 -0.03077,-0.0175 -0.647732,0.54745 -0.65968,0.53594 -0.08357,-0.0805 -0.121169,-0.31436 -0.145375,-0.42443 0.668715,-0.0826 1.350277,-0.0741 2.023932,-0.0818 1.298096,-0.0136 2.59624,-0.0104 3.894384,-0.01 1.524619,0.001 3.049238,0.005 4.573857,0.003 1.267966,-0.004 2.535939,-0.007 3.803915,-0.01 0.33683,0.0422 0.68164,-0.0451 1.018595,-0.003 0.595863,0.0739 1.233374,0.32879 1.778162,0.57225 0.524962,0.20027 0.91105,0.50891 1.132842,1.02321 0.168892,0.42121 0.272563,0.85599 0.496533,1.25374 0.331663,0.43408 0.788263,0.73495 1.287418,0.94276 0.43103,0.21838 0.856337,0.43238 1.163251,0.81392 0,0 -3.391972,2.03874 -3.391972,2.03874 v 0 c -0.283969,-0.31591 -0.691065,-0.47904 -1.058889,-0.67652 -0.549179,-0.28106 -1.05887,-0.63654 -1.41466,-1.15098 -0.235136,-0.41269 -0.378987,-0.84815 -0.542044,-1.29073 -0.148826,-0.42595 -0.542169,-0.60817 -0.939253,-0.77724 -0.864801,-0.35396 -1.741895,-0.53122 -2.681057,-0.45643 -1.258959,-0.002 -2.517915,-0.006 -3.776861,-0.0102 -1.526532,-0.003 -3.053072,-5.3e-4 -4.579607,0.002 -1.305189,0.003 -2.610577,0.006 -3.915481,0.0353 -0.691682,0.0232 -1.384213,0.0463 -2.069814,0.14641 -0.158644,-0.1324 -0.316273,-0.21168 -0.34031,-0.44822 -0.0035,-0.0348 0.624152,-0.48825 0.687586,-0.5566 0.533643,-0.36931 0.925989,-0.90983 1.287769,-1.4405 0.278625,-0.48741 0.670973,-0.91295 0.801746,-1.47204 -1.64e-4,-0.0688 0.01254,-0.24888 -0.02934,-0.32425 -0.181594,-0.32682 -1.078881,-0.12647 -1.325737,-0.1064 -0.771287,0.18125 -1.526625,0.38256 -2.275816,0.64301 -0.48291,0.16788 -1.027856,0.39294 -1.519425,0.5406 -0.231834,0.0696 -0.469141,0.11956 -0.703713,0.17933 -1.498613,0.42101 -2.992694,0.85741 -4.493765,1.26969 -1.232977,0.29176 -2.456624,0.61417 -3.663614,1.00079 -0.667737,0.20732 -1.328772,0.44207 -1.948339,0.76999 8.316807,-4.82064 -0.507637,0.29424 -0.512667,0.29712 -1.049568,0.60061 2.088102,-1.22034 3.137114,-1.82192 0.127535,-0.0731 -0.24571,0.16198 -0.374025,0.23374 -1.186871,0.66378 -2.3734,1.32817 -3.560099,1.99225 -0.091,-0.12823 -0.204324,-0.24325 -0.273007,-0.38469 -0.03588,-0.0739 0.122383,-0.11291 0.164576,-0.18338 0.158387,-0.2645 0.149217,-0.58807 0.265948,-0.86789 0.193882,-0.59494 0.325105,-1.18693 0.409716,-1.80775 0.06739,-0.27229 0.285451,-0.83439 0.300498,-1.08006 0.0066,-0.1084 -0.05605,-0.35221 -0.08208,-0.4654 -0.05864,-0.11628 -0.101735,-0.22737 -0.257733,-0.18231 -0.05365,0.0155 -0.20024,0.0985 -0.152109,0.0702 2.832901,-1.66642 4.259011,-2.43163 2.929223,-1.71508 -0.796462,0.59034 0.3845,-0.29634 -0.459939,0.37887 -0.39302,0.31426 -0.838935,0.56169 -1.137668,0.98399 -0.294362,0.31107 -0.615495,0.5859 -0.917541,0.88816 -0.193799,0.19393 -0.344254,0.42985 -0.547719,0.61362 -0.102497,0.0926 -0.226764,0.15773 -0.340148,0.23659 -0.63231,0.51567 -1.232179,1.06461 -1.853697,1.59285 -0.604414,0.73502 -1.119882,1.53474 -1.711548,2.28026 0,0 -3.60536,1.60713 -3.60536,1.60713 z"
       inkscape:connector-curvature="0" />
    <path
       style="fill:#ffd42a;fill-opacity:1;stroke:#000000;stroke-width:0.26499999;stroke-miterlimit:4;stroke-dasharray:none;stroke-opacity:1"
       id="path918"
       d="m 28.274819,207.2659 c -0.508021,0.51889 -0.947679,1.10079 -1.385639,1.67884 -0.279804,0.42765 -0.534378,0.85943 -0.84885,1.26302 -1.013317,1.61062 -3.692421,3.71665 -4.050975,1.38235 -0.134817,-0.70613 0.310377,-1.23365 0.629845,-1.81193 0.230649,-0.47418 0.491552,-0.93244 0.724534,-1.40525 0.607938,-1.62784 5.107882,-3.09246 3.573654,-1.37319 -0.484569,0.69609 -0.981546,1.38443 -1.491486,2.06224 -0.485682,0.65946 -1.132449,1.14935 -1.787705,1.62537 -1.37091,0.86153 -3.226495,3.42866 -4.607977,2.17418 -0.31056,-0.4369 -0.316811,-0.94319 -0.181469,-1.44262 0.173894,-0.51731 0.47617,-0.9727 0.735503,-1.4483 0.534104,-1.36344 4.473213,-3.46288 3.759464,-1.55664 -0.219828,0.5025 -0.566798,0.92478 -0.887937,1.36317 -0.74416,1.18589 -3.661368,4.17829 -4.173062,2.05234 0.06503,-0.49204 0.312887,-0.92916 0.582375,-1.33676 1.91113,-2.26129 3.74415,-3.26918 4.117422,-1.02529 0.137521,0.68379 -0.0743,1.31207 -0.306516,1.94625 -0.394772,0.84191 -0.842394,1.65131 -1.37095,2.41607 -0.57708,0.8042 -0.979093,1.7125 -1.449218,2.57966 -0.545378,0.75776 -1.060394,1.54306 -1.620649,2.29074 -1.117494,1.21535 6.401055,-2.05331 -3.681777,1.61223 -0.106969,0.0389 0.08478,-0.27452 0.220857,-0.55707 0.262271,-0.39257 0.499052,-0.80131 0.79074,-1.17309 0.259088,-0.35758 0.452051,-0.76221 0.628454,-1.16616 0.553034,-1.47215 4.853722,-3.09267 3.412684,-1.17889 -0.322512,0.47333 -0.685014,0.8991 -1.136877,1.25209 -0.36999,0.35151 -0.737907,0.69457 -1.137102,1.01348 -1.303466,0.94111 -3.173113,3.32404 -4.4017,1.88137 -0.287344,-0.46819 -0.319964,-0.98459 -0.191163,-1.50652 0.136258,-0.56743 0.379919,-1.09133 0.613948,-1.62204 0.09204,-0.40808 0.396219,-0.77671 0.417078,-1.199 -0.695895,-5.34597 3.629887,-2.64861 3.666568,-1.34706 0.01363,0.48373 -0.250144,0.92453 -0.455757,1.34407 -0.291469,0.61052 -0.533276,1.24428 -0.922111,1.80104 -0.863072,1.27755 -3.295379,4.08131 -4.173517,2.25035 -0.03421,-0.60144 0.303904,-1.14462 0.491984,-1.7023 0.170148,-0.51978 0.343834,-1.03673 0.537531,-1.54806 0.04801,-0.0911 0.202428,-0.74565 0.260936,-0.77417 3.678877,-1.79381 3.23623,-2.91153 3.707605,-1.37351 0.182403,0.83782 -0.19653,1.60297 -0.540322,2.34655 -0.447618,0.91516 -0.881218,1.83666 -1.36327,2.73446 -0.417757,0.9675 -1.002937,1.84329 -1.564768,2.73145 -0.569811,0.77116 -1.098635,1.56086 -1.54957,2.40668 -0.673544,1.47164 -4.9709441,3.04921 -3.5265868,1.11046 0.43053,-0.47938 0.833814,-0.98247 1.2695883,-1.45699 0.5392995,-0.51334 1.0296015,-1.07831 1.5787895,-1.57962 0.701294,-0.625 1.525856,-1.07837 2.309279,-1.58707 0.664054,-0.39537 1.23693,-0.91497 1.873734,-1.34909 1.645119,-1.12297 -2.177873,1.47654 3.952769,-2.32608 0.992158,-0.61541 -2.022542,1.16698 -3.038926,1.74149 -0.108258,0.0612 0.206597,-0.13879 0.314104,-0.20129 1.220412,-0.70952 2.457638,-1.39027 3.669326,-2.11459 1.008504,-0.60286 -2.039785,1.16677 -3.059678,1.75016 0.707161,-0.44116 1.394634,-0.91247 2.101692,-1.35373 1.458976,-0.94407 2.931524,-1.7656 4.479759,-2.62298 0.166719,-0.0923 0.359261,-0.13015 0.52914,-0.21652 1.346357,-0.7462 3.813958,-2.17196 -2.116251,1.23783 2.190116,-1.36306 7.214274,-4.15185 0.512367,-0.32789 -0.418958,0.23905 0.379261,-0.24803 0.46151,-0.31213 0.298786,-0.3242 0.466407,-0.73915 0.644615,-1.13658 0.147293,-0.35871 0.191804,-0.74166 0.216948,-1.12486 0.01136,-0.36778 -0.02386,-0.71997 0.124385,-1.064 0.182704,-0.41125 0.369021,-0.82134 0.54186,-1.23709 0.207909,-0.47981 0.349447,-0.98299 0.601666,-1.44265 1.05076,-1.47436 3.0676,-2.14227 4.503147,-2.95499 0.59522,-0.10685 1.181253,-0.23945 1.779579,-0.32918 0.921414,-0.11248 1.853536,-0.0954 2.780263,-0.10544 1.027261,-0.0109 2.054609,-0.007 3.081909,-0.009 0.848675,0.0554 1.726351,-0.11568 2.556613,0.0882 0.567968,0.19365 1.14612,0.33242 1.742242,0.39742 0.509108,-0.0139 0.988332,0.0913 1.481915,0.19309 0.524904,0.0935 1.060268,0.099 1.591829,0.10911 0.562229,0.007 1.124524,0.005 1.686782,0.004 0.534456,-0.001 1.068911,-0.002 1.60337,-0.002 0.531836,-1.7e-4 1.063675,-1.6e-4 1.595511,-1.6e-4 0.532104,1e-5 1.06421,2e-5 1.596313,2e-5 0.584674,1.4e-4 1.169334,0.002 1.754011,0.002 0.550941,-0.0537 1.070633,0.0409 1.605774,0.1481 0.490326,0.19736 1.006002,0.27124 1.48417,0.49825 0.57876,0.37718 1.264772,0.52577 1.92042,0.71641 0.62039,0.0983 1.192173,0.3294 1.752399,0.60599 0.565671,0.30566 1.11851,0.61381 1.652537,0.97385 0.487275,0.43099 1.057431,0.73374 1.598501,1.0865 0.492395,0.32558 0.987444,0.63992 1.481585,0.96336 0.472104,0.23234 0.856321,0.60318 1.271754,0.92125 0.428088,0.23451 0.763172,0.60377 1.192895,0.83177 0.372385,0.20985 0.64058,0.54646 1.010711,0.75666 0.325716,0.37426 0.751822,0.59303 1.199505,0.78594 0.2492,0.002 0.422859,0.22779 0.635164,0.30294 0.01752,0.006 0.05467,-0.0495 0.03851,-0.0403 -3.510229,1.99228 -2.488279,2.88937 -3.574602,1.85287 -0.446839,-0.47186 -0.908868,-0.92789 -1.358522,-1.39806 -0.548722,-0.57503 -1.066726,-1.17776 -1.581872,-1.7831 -0.363194,-0.53152 -0.785662,-0.93788 -1.409618,-1.11277 -0.503418,-0.097 -1.01931,-0.0833 -1.529583,-0.0808 -0.259593,0.0573 -0.5715,-0.0661 -0.826344,0.005 -0.147264,0.0413 -0.585192,0.35253 -0.750657,0.44048 -0.478994,0.28693 -1.053452,0.24128 -1.56309,0.4113 -0.453416,0.15368 -0.931849,0.18538 -1.406207,0.20834 -0.304784,-0.0493 -0.750816,0.0993 -1.041265,0.0153 -0.09031,-0.0261 -0.42958,-0.25768 -0.515493,-0.31438 -0.467323,-0.30694 -0.8475,-0.72734 -1.312863,-1.0332 -0.371567,-0.25915 -0.800523,-0.34901 -1.195726,-0.53167 -0.46278,-0.21609 -0.978871,-0.19584 -1.47097,-0.28704 -0.5955,-0.054 -1.148212,-0.2801 -1.729181,-0.40144 -0.260488,0.0656 -0.507696,-0.18284 -0.747094,-0.19161 -0.03144,-10e-4 -0.09078,0.0859 -0.06393,0.0695 3.487692,-2.13224 2.220126,-2.72945 3.569509,-2.03183 0.593363,0.40239 1.208567,0.76682 1.870284,1.04715 0.548831,0.29114 1.079048,0.60628 1.60155,0.94034 0.50492,0.26947 0.998034,0.56224 1.536803,0.75968 0.477914,0.23202 0.925504,0.51828 1.410404,0.74025 0.454953,0.15135 0.916019,0.29161 1.357333,0.48129 0.566008,0.35926 1.191766,0.54618 1.81795,0.76345 0.587708,0.24542 1.173257,0.50626 1.78241,0.69449 0.503174,0.23551 1.039305,0.34599 1.587995,0.40147 0.546836,-0.0158 1.046118,0.12905 1.546926,0.32836 0.430191,0.11043 0.818171,0.31847 1.252657,0.41502 0.388609,0.17895 0.797057,0.2809 1.194429,0.43553 0.428877,0.14353 0.884034,0.15932 1.331881,0.17593 0.52388,0.013 1.047991,0.01 1.571985,0.009 0.342106,-0.0585 0.728308,0.075 1.06616,-0.002 0.08952,-0.0204 0.299794,-0.17075 0.377378,-0.22285 -1.079297,0.61667 -2.153817,1.24179 -3.237889,1.85003 -0.07709,0.0433 0.169055,-0.10502 0.182504,-0.19239 0.02887,-0.18753 -0.07482,-0.40578 -0.146042,-0.57093 -0.233897,-0.47282 -0.546703,-0.88995 -0.753695,-1.37772 -0.188748,-0.41031 -0.395226,-0.81363 -0.566515,-1.23164 -0.191114,-0.40777 -0.301395,-0.84778 -0.542949,-1.23063 -0.212092,-0.37758 -0.600006,-0.60188 -0.914098,-0.88988 -0.367274,-0.27503 -0.774507,-0.47601 -1.072171,-0.83256 -0.283223,-0.27786 -0.487241,-0.61295 -0.713457,-0.93426 -0.219062,-0.38475 -0.482288,-0.74205 -0.685662,-1.13519 -0.18981,-0.34089 -0.415658,-0.64731 -0.695807,-0.91812 -0.358079,-0.25334 -0.80241,-0.32816 -1.212649,-0.46861 -0.375978,-0.25311 -0.815118,-0.34312 -1.210209,-0.55775 -0.549304,-0.22932 -1.074328,-0.5101 -1.636271,-0.70933 -0.540917,-0.11491 -1.071105,-0.25749 -1.609124,-0.38509 -0.47525,-0.0964 -0.961782,-0.1049 -1.444842,-0.11382 -0.520579,0.0132 -1.02225,0.009 -1.529734,-0.10743 -0.461142,-0.10802 -0.93477,-0.13225 -1.406258,-0.14941 -0.523581,-0.0137 -1.047408,-0.012 -1.571122,-0.0116 -0.480621,-0.006 -0.944599,-0.15561 -1.423003,-0.21186 -0.501044,-0.0477 -1.00488,-0.0501 -1.507731,-0.0535 -0.531061,-0.002 -1.062125,-2.6e-4 -1.593186,2.7e-4 -0.532545,5.3e-4 -1.06509,7.9e-4 -1.597636,7.9e-4 -0.532204,7e-5 -1.064405,6e-5 -1.596607,6e-5 -2.100911,-0.0503 -1.967878,0.6779 2.291739,-2.32783 0.717505,0.0187 1.435584,0.0168 2.153325,0.0166 0.964014,0.009 1.911789,0.28579 2.847943,0.50047 0.933169,0.12962 1.813409,0.45879 2.737151,0.63547 0.908733,0.16137 1.832748,0.18256 2.753064,0.19576 0.797698,0.008 1.595395,0.003 2.39309,-0.002 0.554715,-0.064 1.081696,0.0933 1.622724,0.17903 0.538985,0.24142 1.122934,0.36099 1.669823,0.57565 0.4558,0.24012 0.963638,0.35452 1.4317,0.5589 0.545219,0.24446 1.005332,0.61436 1.484979,0.9605 0.431342,0.28562 0.833136,0.60916 1.248164,0.91653 0.366482,0.25246 0.761942,0.45106 1.144791,0.67572 0.385056,0.26623 0.638421,0.60674 0.760674,1.05496 0.110051,0.49375 0.110871,0.81258 -0.298889,1.15819 -0.399624,0.27913 -0.758666,0.59225 -1.108411,0.92911 -1.224581,1.17419 -2.617033,2.30342 -4.332734,2.68525 -0.515549,0.14096 -1.020932,0.31847 -1.538886,0.45748 -0.502221,0.16188 -1.034052,0.24 -1.534784,0.40539 -0.522129,0.17042 -1.068292,0.22339 -1.613371,0.25445 -0.02429,8e-4 -0.512749,0.0195 -0.537723,0.015 -0.283068,-0.051 -0.79783,-0.29226 -1.070674,-0.41307 -0.510582,-0.15132 -0.965208,-0.39775 -1.417555,-0.66976 -0.449438,-0.26469 -0.953366,-0.40166 -1.391269,-0.68847 -0.409242,-0.17107 -0.723104,-0.4873 -1.116053,-0.68518 -0.35048,-0.24898 -0.656016,-0.56828 -0.931322,-0.89824 -0.290058,-0.29656 -0.589407,-0.57872 -0.857899,-0.89659 -0.292036,-0.37812 -0.709498,-0.59551 -1.06636,-0.89731 -0.498552,-0.36551 -1.015823,-0.69819 -1.582431,-0.94712 -0.615553,-0.23888 -1.2354,-0.47898 -1.867059,-0.67374 -0.471953,-0.20743 -0.970711,-0.31854 -1.453692,-0.49355 -0.426627,-0.0888 -0.812625,-0.28241 -1.239747,-0.3711 -0.49733,-0.061 -0.974866,-0.22383 -1.438384,-0.40772 -0.424709,-0.19711 -0.838099,-0.42775 -1.278165,-0.58958 -0.422704,-0.13018 -0.828098,-0.31566 -1.243859,-0.47071 -0.433737,-0.16376 -0.842251,-0.34468 -1.30456,-0.41955 -0.418023,-0.11278 -0.797197,-0.31556 -1.204928,-0.45289 -0.443302,-0.13466 -0.911995,-0.0784 -1.357009,-0.18905 -0.442999,-0.0645 -0.84969,-0.23027 -1.276691,-0.35168 -0.496258,-0.0819 -0.990486,-0.13445 -1.485638,-0.22628 -0.576815,-0.10655 -1.16246,-0.14122 -1.747594,-0.16002 -0.681971,-0.0307 -0.963866,0.1475 -1.132901,-0.60366 3.211452,-1.96068 2.560844,-1.97133 4.789951,-1.98633 0.660416,-0.003 1.320858,-0.002 1.981276,5.5e-4 0.692592,-0.0237 1.392227,0.0556 2.079125,-0.047 0.575495,-0.1095 1.156997,-0.17108 1.74143,-0.20263 0.587652,-0.0238 1.176027,-0.0188 1.764048,-0.0197 0.484759,-0.11863 0.97422,-0.19639 1.471393,-0.23521 0.519946,-0.0318 1.04113,-0.0317 1.561838,-0.0329 0.346932,0.044 0.719116,-0.058 1.063646,9e-4 0.0085,0.001 0.625679,0.19615 0.635688,0.1993 0.537676,0.16889 1.060934,0.39534 1.569974,0.63883 0.05276,0.0335 0.111054,0.0596 0.158284,0.10058 1.031516,0.89437 -2.6577,2.09839 -3.288718,2.4586 -0.04953,0.0283 -0.113784,-0.009 -0.170804,-0.0103 -0.06589,-0.002 -0.131829,8e-4 -0.197744,0.001 -0.506087,0.005 -1.012209,0.002 -1.518304,9e-5 -0.537366,-0.002 -1.074732,-0.003 -1.612101,-0.003 -0.532913,-2.6e-4 -1.065823,-2.6e-4 -1.598736,-2.5e-4 -0.532128,1e-5 -1.064255,3e-5 -1.59638,3e-5 -0.532148,1e-5 -1.064294,1e-5 -1.59644,1e-5 -0.532162,0 -1.064321,0 -1.596483,0 -0.584673,-1.4e-4 -1.169331,-0.002 -1.754007,-0.002 -0.547608,-0.0577 -1.032942,0.0479 -1.560502,0.15519 -0.485741,0.058 -0.938406,0.21822 -1.423998,0.29315 -0.469781,0.0426 -0.90314,0.23088 -1.328129,0.41853 5.822429,-3.32923 3.322142,-2.41049 2.540852,-1.03512 -0.01297,0.038 -0.04628,0.0746 -0.03886,0.11402 0.0038,0.02 0.03516,-0.0272 0.05548,-0.0256 0.06853,0.005 0.133781,0.0317 0.201237,0.0449 0.306726,0.0598 0.611007,0.0848 0.922451,0.10499 0.76545,-0.27612 1.547082,-0.50106 2.3188,-0.75908 0.702691,-0.15899 1.390436,-0.35995 2.104105,-0.46573 0.301918,-0.17901 1.198848,-0.16812 1.449533,-0.32427 0.02484,-0.0155 0.01574,-0.0564 0.02363,-0.0846 -3.680889,2.71417 -2.328069,2.34062 -5.06762,2.35124 -0.128289,2e-4 -0.258421,-0.0211 -0.384863,5.3e-4 -0.290206,0.0498 -0.55811,0.18884 -0.841862,0.26746 -0.487519,0.13507 -0.98017,0.24312 -1.475581,0.34414 -0.76848,0.13537 -1.547601,0.18112 -2.326368,0.19949 -0.563671,-0.047 -1.100418,0.0565 -1.651487,0.14871 -0.503647,0.11689 -0.961424,0.34658 -1.450572,0.50156 -0.487018,0.12599 -0.992548,0.13659 -1.492499,0.14762 -0.08751,0.001 -0.176593,0.0195 -0.262517,0.003 -0.08342,-0.0161 -0.413276,-0.17371 -0.498294,-0.21045 -0.21999,-0.0951 -0.436621,-0.16219 -0.669031,-0.21879 -0.215723,0.007 -0.509184,-0.15171 -0.722794,-0.0865 -0.07328,0.0223 -0.115951,0.10023 -0.175858,0.14798 -0.06374,0.0508 -0.265949,0.18769 -0.194956,0.14763 1.058818,-0.59745 2.106816,-1.21388 3.160224,-1.82082 -1.521376,0.98346 -3.09801,1.87327 -4.676237,2.76598 1.048734,-0.60367 4.211868,-2.38428 3.1462,-1.81102 -1.23251,0.663 -2.429061,1.3908 -3.646906,2.08037 -0.09392,0.0532 -0.381578,0.20171 -0.288125,0.14772 5.530864,-3.19552 3.666029,-2.20456 2.548811,-1.39501 -0.520611,0.39997 -0.981235,0.87035 -1.447304,1.33106 -0.445378,0.31475 -0.653941,0.77049 -0.879161,1.24487 -1.19086,0.62482 -2.343029,1.32971 -3.572579,1.87446 -0.209686,0.0929 -0.185954,-0.61079 -0.158367,-0.6941 0.06253,-0.18882 0.127493,-0.26608 0.234633,-0.43274 0.325595,-0.3479 0.52868,-0.77867 0.799227,-1.16631 0.205362,-0.42413 0.512255,-0.76402 0.824752,-1.10986 0.315936,-0.35294 0.566981,-0.76232 0.782614,-1.18287 0.839045,-1.19874 3.501384,-2.22217 3.942166,-2.47793 0.255073,-0.148 0.513217,-0.2487 0.792307,-0.34068 0.276932,-0.20904 0.619136,-0.24623 0.93318,-0.35641 0.136048,-0.0477 0.260719,-0.12368 0.394789,-0.17671 0.28794,-0.12738 0.611398,-0.0918 0.910532,-0.15395 0.139365,-0.0289 0.269423,-0.0921 0.405679,-0.13327 0.422246,-0.0805 0.874864,-0.20388 1.299298,-0.0985 0.49558,0.34334 0.201123,0.70282 -0.159645,0.95816 -1.197606,0.69452 -2.387779,1.40203 -3.59282,2.08358 -0.07655,0.0433 -0.168762,0.0516 -0.248403,0.0889 -0.07426,0.0348 -0.282298,0.16701 -0.21109,0.12634 5.168408,-2.95194 3.960532,-2.43293 2.857475,-1.57204 -0.295058,0.26119 -0.551691,0.56072 -0.838442,0.82998 -0.308373,0.19895 -0.572665,0.46383 -0.749574,0.78561 -0.141567,0.39928 -0.270821,0.80127 -0.381551,1.21023 -0.11428,0.39639 -0.304602,0.76274 -0.44215,1.14977 -0.122334,0.45854 -0.238352,0.92044 -0.398039,1.36772 -0.123829,0.39822 -0.316387,0.76714 -0.444933,1.16347 -0.06225,0.39478 -0.167662,0.77821 -0.259233,1.16681 -0.114557,-0.31537 0.01103,0.28242 -0.0094,0.21399 -0.01155,-0.0387 -0.05418,-0.29048 -0.06016,-0.28737 -3.099669,1.6091 -4.105793,2.95168 -3.226307,1.80539 0.320547,-0.38417 0.712424,-0.70016 1.073825,-1.04479 0.310124,-0.31942 0.656541,-0.59163 1.024256,-0.84089 0.36913,-0.27485 0.718127,-0.56754 1.024016,-0.9124 0.348412,-0.44274 0.669696,-0.90256 1.053779,-1.3157 0.368331,-0.44071 0.645688,-0.93797 1.042765,-1.35621 0.423694,-0.39687 0.79237,-0.84458 1.168162,-1.28607 0.319026,-0.44489 0.754827,-0.74778 1.189095,-1.06641 1.357794,-0.99733 0.198017,-0.15861 3.855392,-2.27177 0.08425,-0.0487 0.33996,-0.18943 0.255701,-0.14077 -1.03597,0.59821 -4.144002,2.39259 -3.110883,1.78947 3.558479,-2.0774 2.352487,-1.56477 3.907014,-2.20756 0.329282,-0.22124 0.720641,-0.27296 1.086541,-0.39248 0.07865,-0.0257 0.151231,-0.0672 0.226846,-0.10074 0.08607,-0.025 0.172151,-0.0501 0.258225,-0.0752 0.644478,-0.10882 1.234059,-0.33745 1.674937,0.29039 0.0016,0.11922 0.04071,0.24398 0.0048,0.35766 -0.02863,0.0905 -0.104537,0.16701 -0.186066,0.21567 -1.201465,0.71708 -2.420578,1.40488 -3.649604,2.07361 -0.09477,0.0516 -0.210762,0.048 -0.312989,0.0825 -0.227756,0.0769 -0.32534,0.14399 -0.533236,0.2603 -0.581149,0.16431 -1.094401,0.4904 -1.657125,0.69631 -0.305737,0.23019 -0.67867,0.29617 -1.025655,0.42542 -0.145878,0.0543 -0.280993,0.1345 -0.425185,0.19316 -0.486643,0.27767 -1.04272,0.38421 -1.556827,0.60547 -1.280059,0.47713 -3.077166,1.64907 2.561495,-1.53854 0.529243,-0.29919 -0.49275,0.32224 -0.621933,0.42463 -0.353517,0.27656 -0.668692,0.59669 -0.996119,0.90247 -1.294361,1.12481 0.8822,-0.74603 -3.77358,2.25782 -1.027792,0.66312 4.254246,-2.41575 3.179385,-1.83201 -0.226286,0.12289 -2.73325,2.86825 -3.890616,1.85984 -0.307374,-0.42262 -0.264205,-0.86597 -0.05258,-1.31523 0.213707,-0.36433 0.522645,-0.65146 0.807735,-0.95706 0.301678,-0.23 0.589079,-0.45952 0.830218,-0.75604 0.202454,-0.32745 0.412229,-0.65209 0.668734,-0.94008 0.961423,-1.14902 3.34221,-2.07937 4.031658,-2.48394 1.058339,-0.62102 -2.126109,1.22587 -3.192425,1.8331 -0.07834,0.0446 0.152161,-0.0967 0.228243,-0.1451 12.091461,-6.95493 -2.171791,1.22377 0.697127,-0.43501 1.199163,-0.69335 2.394812,-1.39309 3.605085,-2.06685 0.318315,-0.0995 0.17059,-0.0347 0.445437,-0.18907 -6.905532,4.08571 -1.075569,0.36639 1.042588,-0.62682 -5.745256,3.47702 -3.611552,2.21078 -2.438493,1.25718 0.738966,-0.9425 3.735631,-3.43563 3.991811,-1.46074 -0.113985,0.38814 -0.480906,0.54515 -0.742389,0.8143 -0.37955,0.31812 -0.751094,0.6484 -1.140285,0.95489 -0.36162,0.23225 -0.701503,0.49402 -1.044337,0.75274 -1.362493,0.95564 -2.916822,1.76347 -4.335303,2.53272 -1.069683,0.58009 2.110919,-1.21118 3.168051,-1.81384 0.07265,-0.0414 -0.143018,0.0867 -0.214527,0.13007 -1.547558,0.94155 -3.103691,1.96139 -4.777507,2.68806 5.794637,-3.45273 3.270017,-2.01083 2.09054,-0.99403 -1.271197,0.97108 -2.776654,1.67128 -4.133462,2.45239 -1.070559,0.61633 2.141963,-1.23118 3.214879,-1.8434 0.07178,-0.041 -0.140915,0.0864 -0.211373,0.12959 -1.774025,-0.13782 -2.541292,1.53011 -3.852165,2.22232 -0.173723,0.0917 -0.348468,0.18152 -0.523392,0.27095 -0.08901,0.0455 -0.358622,0.17615 -0.272236,0.12583 1.042646,-0.60731 2.094719,-1.19829 3.142079,-1.79744 -1.305799,0.88415 -2.639045,1.57422 -4.052678,2.39473 -0.07798,0.0453 -0.312779,0.17953 -0.234604,0.13462 3.231105,-1.85652 4.142512,-2.52336 2.954586,-1.66792 -1.242144,0.98037 -2.374152,1.42868 -3.988434,2.36863 -1.053437,0.61339 2.113587,-1.21518 3.172071,-1.81982 0.12664,-0.0723 -0.244078,0.16054 -0.357673,0.25201 -0.3279,0.2764 -0.649834,0.55982 -0.897112,0.91225 -0.296379,0.32647 -0.374175,0.75049 -0.513217,1.15243 -0.163919,0.43099 -0.205735,0.88916 -0.233489,1.34526 -0.02289,0.52371 -0.02038,1.04809 -0.02009,1.57218 0.0085,0.24769 -0.01949,0.49688 0.02317,0.74279 0.0093,0.0539 0.139926,0.43615 -6.62e-4,-0.0659 -4.527842,2.70337 -3.648883,2.68306 -2.731063,0.87843 0.265094,-0.54496 0.621492,-1.02105 1.010232,-1.48124 0.309218,-0.42328 0.597677,-0.86121 0.897887,-1.29096 0.270448,-0.51803 0.601964,-0.99955 0.895187,-1.50403 0.256797,-0.39861 0.418836,-0.85426 0.726604,-1.21737 1.115865,-1.27928 3.171667,-2.07276 4.416519,-2.78355 0.531967,-0.12618 1.090066,-0.18032 1.601648,-0.38125 0.46289,-0.19412 0.96019,-0.24008 1.454402,-0.28295 0.457671,-0.0243 0.916342,-0.0176 1.374471,-0.0161 0.521369,0.002 1.042739,0.003 1.564111,0.004 0.433133,0.059 0.902023,-0.0777 1.331595,5.3e-4 0.101587,0.0185 0.195051,0.0679 0.292576,0.10179 0.507458,0.21716 1.040313,0.33284 1.586362,0.39251 0.587717,0.0179 1.157537,0.16015 1.741525,0.22468 0.433821,-0.0154 0.900737,0.13982 1.333608,0.0729 0.05433,-0.008 0.429872,-0.17584 0.482053,-0.19858 0.460801,-0.12725 0.890214,-0.33185 1.347541,-0.46554 -0.135969,0.0937 0.426617,-0.27177 0.316839,-0.2089 -1.092793,0.62579 -4.372327,2.50085 -3.270689,1.89076 1.182219,-0.65472 2.333773,-1.36363 3.51247,-2.02466 1.068406,-0.59919 -4.241551,2.45303 -3.182506,1.83746 0.255254,-0.38568 0.600649,-0.69372 0.909373,-1.03477 1.338151,-1.51688 1.791181,-1.40393 4.357412,-2.87951 0.36531,-0.26832 0.814385,-0.31085 1.251823,-0.34737 0.518787,-0.0309 1.038834,-0.0269 1.558301,-0.0261 0.54678,-0.0845 0.981175,0.21472 1.47933,0.37768 0.499547,0.18939 0.968709,0.43263 1.436786,0.68665 0.486113,0.14426 0.949261,0.34805 1.447339,0.45195 0.451287,0.19641 0.93236,0.27792 1.399659,0.4275 0.537406,0.15173 1.069787,0.30759 1.593652,0.50042 0.483142,0.14276 0.979665,0.20151 1.469316,0.31851 0.43121,0.17603 0.82877,0.41543 1.234045,0.64375 0.452181,0.22069 0.947209,0.33886 1.402086,0.54934 0.343172,0.26854 0.730316,0.46672 1.0541,0.75916 0.384524,0.26101 0.787077,0.5126 1.216202,0.69496 0.477414,0.23893 0.953995,0.47078 1.473287,0.60221 0.498862,0.17777 1.015707,0.28076 1.468387,0.56517 0.389541,0.17702 0.725853,0.4485 1.118161,0.61842 0.415338,0.25562 0.856835,0.47164 1.261867,0.74189 0.381257,0.21725 0.78558,0.378 1.208741,0.49307 1.218205,-0.72731 0.02365,-0.0119 -3.170195,1.73036 -0.0487,0.0266 0.09727,-0.0538 0.142666,-0.0857 0.16107,-0.11319 0.236434,-0.24083 0.321056,-0.41439 0.145841,-0.47611 0.26937,-0.95786 0.346612,-1.44992 0.06995,-0.52339 0.07656,-1.05219 0.08231,-1.57933 -0.06289,-0.44708 -0.324091,-0.79435 -0.575247,-1.15106 -0.201033,-0.39246 -0.447974,-0.71056 -0.800579,-0.9692 -0.399925,-0.23016 -0.764405,-0.50871 -1.195882,-0.6811 -0.517255,-0.28075 -1.079225,-0.43969 -1.62873,-0.63908 -0.55875,-0.21031 -1.147059,-0.28618 -1.738844,-0.32122 -0.673304,-0.0286 -1.347428,-0.0234 -2.021155,-0.0205 -0.559604,0.003 -1.119217,0.005 -1.678829,0.006 -0.418666,0.25756 -0.87313,0.39369 -1.354436,0.46992 -0.518618,0.0904 -1.026025,0.22115 -1.552795,0.27917 -0.535665,0.0483 -1.073983,0.05 -1.611371,0.0524 -0.447378,0.13367 -0.906155,0.19819 -1.370266,0.23381 -0.518332,0.0309 -1.037849,0.0307 -1.556904,0.0318 -0.431064,-0.0627 -0.904216,0.0835 -1.331058,-0.001 -0.09366,-0.0186 -0.177561,-0.0704 -0.266342,-0.10552 -0.581933,-0.27891 -1.237988,-0.33374 -1.872414,-0.3886 -0.820291,-0.0519 -1.642687,-0.0499 -2.464234,-0.0479 -0.645168,0.004 -1.290339,0.006 -1.935517,0.004 -0.117266,5e-5 -0.235635,-0.0159 -0.351798,1.5e-4 -0.0626,0.009 -0.58475,0.17548 -0.643874,0.19344 -0.304006,0.0923 -0.606444,0.16736 -0.917721,0.23021 -0.548169,0.0978 -1.105894,0.10878 -1.661067,0.11613 -0.43266,-0.0553 -0.901912,0.0793 -1.330931,-1.6e-4 -0.101431,-0.0188 -0.194654,-0.0684 -0.291981,-0.10253 -0.09155,-0.0341 -0.186338,-0.0606 -0.274664,-0.10242 -0.166306,-0.0787 -0.315193,-0.19035 -0.478406,-0.27527 -0.21308,-0.11086 -0.434557,-0.17847 -0.646435,-0.29258 -0.393391,-0.14742 -0.78109,-0.31645 -1.184582,-0.43753 -0.463415,-0.14134 -0.92106,-0.27272 -1.404112,-0.33566 -0.432068,-0.19264 -0.915154,-0.19482 -1.354863,-0.34679 -0.465245,-0.17148 -0.835225,-0.0619 -1.067087,-0.57053 -0.141889,-1.99834 2.957466,-2.22967 4.528202,-2.25015 0.64424,-0.007 1.288524,-0.004 1.932776,-5.3e-4 0.682392,0.18301 1.357347,0.36939 2.058985,0.46035 0.597392,0.0665 1.19901,0.0713 1.799341,0.074 0.552498,0.0127 1.106887,-0.0417 1.653556,0.0472 0.65859,0.13735 1.337318,0.11791 1.995713,0.24399 0.622009,0.0312 1.078547,0.38446 1.587629,0.69486 0.462931,0.26554 0.973138,0.41417 1.419371,0.7067 0.427839,0.25501 0.912026,0.44569 0.758131,1.02788 -3.10843,1.90653 -2.642602,1.98917 -4.871857,1.99516 -0.49857,-0.3429 -1.080185,-0.50562 -1.620285,-0.75708 -0.470532,-0.20486 -0.956614,-0.36275 -1.440169,-0.53313 -0.588999,-0.15523 -1.160767,-0.36219 -1.759373,-0.48027 -0.504312,-0.0277 -0.975802,-0.20376 -1.470285,-0.28899 -0.552092,-0.0438 -1.055817,-0.2756 -1.577493,-0.43879 -0.47399,-0.23768 -0.983901,-0.34503 -1.5065,-0.40112 -0.472266,-0.0491 -0.924119,-0.19648 -1.398527,-0.2523 -0.03769,-0.003 -0.445466,-0.0381 -0.480018,-0.032 -0.165147,0.0289 -0.308131,0.13278 -0.465836,0.1897 -0.243171,0.0878 -0.27565,0.0911 -0.525745,0.15901 -0.531787,0.12948 -1.079875,0.15157 -1.624469,0.16601 -1.24591,0.0473 -4.431479,2.3519 2.759536,-1.73251 0.03266,-0.0186 -0.076,0.0201 -0.102578,0.0466 -0.04716,0.0471 -0.07386,0.11094 -0.110789,0.16641 -0.251003,0.32804 -0.458478,0.69213 -0.73177,1.00231 -0.292454,0.35557 -0.66018,0.6386 -0.916232,1.02322 -0.238023,0.40343 -0.414701,0.83623 -0.635204,1.24888 -0.230035,0.44823 -0.48743,0.88061 -0.748659,1.31102 -0.209757,0.27499 -0.417708,0.56017 -0.563416,0.87507 -0.127853,0.26326 -0.266015,0.51348 -0.362673,0.79153 -0.06993,0.41226 -0.444999,0.64856 -0.73045,0.92018 -0.35224,0.29139 -0.662397,0.62186 -1.054487,0.86097 0,0 -3.677579,1.46802 -3.677579,1.46802 v 0 c 0.16392,-0.15478 0.341194,-0.21668 0.523638,-0.345 0.256002,-0.18006 0.124169,-0.12616 0.35422,-0.3464 0.05915,-0.0566 0.12751,-0.10277 0.191265,-0.15416 0.284761,-0.21649 0.530639,-0.4922 0.816849,-0.68353 0.04396,-0.29875 0.138956,-0.62248 0.342386,-0.85035 0.127677,-0.35783 0.30412,-0.66969 0.520915,-0.97882 0.353926,-0.33949 0.524931,-0.84104 0.791244,-1.24598 0.206982,-0.41913 0.407895,-0.83891 0.628574,-1.24855 0.184916,-0.45035 0.503781,-0.78579 0.876842,-1.09129 0.243057,-0.32884 0.54507,-0.62031 0.740514,-0.98662 0.0377,-0.0462 0.08697,-0.085 0.113099,-0.13865 0.02763,-0.0567 -0.0095,-0.15079 0.04414,-0.18397 2.226568,-1.37764 2.416284,-2.03281 4.113198,-2.06062 0.528762,-0.0294 1.058299,-0.0799 1.56563,-0.24215 0.525396,-0.16521 1.020934,-0.3226 1.577004,-0.18474 0.466169,0.0786 0.920509,0.21668 1.393476,0.25332 0.535461,0.0899 1.046755,0.24902 1.547418,0.45966 0.508185,0.17589 1.016315,0.33656 1.554247,0.39595 0.488069,0.10887 0.970804,0.23426 1.467236,0.30228 0.600419,0.14826 1.188244,0.34364 1.782157,0.51534 0.497747,0.16016 0.985851,0.34836 1.464146,0.55981 0.505605,0.20916 1.001718,0.47341 1.523526,0.61943 1.92128,-0.0388 2.894476,-0.87228 -2.020631,1.75412 0.05584,0.0246 0.113448,0.0456 0.167511,0.0739 0.04124,0.0216 0.071,0.076 0.117554,0.0754 0.03231,-5.3e-4 -0.03601,-0.0545 -0.05994,-0.0762 -0.176257,-0.16001 -0.398087,-0.25715 -0.595662,-0.38581 -0.461557,-0.25841 -0.970087,-0.42438 -1.418346,-0.71051 -0.471006,-0.29614 -0.921645,-0.53687 -1.492959,-0.56963 -0.661493,-0.0809 -1.327116,-0.12765 -1.986854,-0.22513 -0.544648,-0.0236 -1.089904,-0.005 -1.634927,-0.0153 -0.608859,-0.0111 -1.218965,-0.032 -1.821984,-0.12387 -0.681167,-0.11426 -1.336651,-0.33996 -2.022978,-0.41523 -0.644734,0.002 -1.289643,-0.001 -1.934194,0.0164 -0.256866,0.0118 -0.522795,0.0134 -0.775155,0.0704 -0.05772,0.013 -0.220384,0.0829 -0.169521,0.0526 3.309318,-1.96706 4.239926,-1.07236 3.126351,-2.03931 -0.02743,-0.0265 -0.06794,-0.0441 -0.08229,-0.0794 -0.0084,-0.0208 0.03993,0.0209 0.06129,0.0278 0.05996,0.0191 0.121187,0.0341 0.182089,0.05 0.386757,0.10095 0.06408,0.009 0.43748,0.11876 0.06715,0.0198 0.134271,0.0397 0.201406,0.0595 0.443849,0.0939 0.883396,0.19792 1.32216,0.31244 0.493091,0.0916 0.969471,0.23928 1.4487,0.38536 0.408173,0.15158 0.823531,0.28952 1.213181,0.48483 0.445791,0.20491 0.870928,0.46326 1.34258,0.60044 0.518837,0.0564 1.043353,0.016 1.564407,0.0183 0.540322,-0.0177 1.082408,-0.0489 1.610252,-0.17507 0.645578,-0.15859 1.281567,-0.39792 1.957887,-0.34978 0.644896,-0.004 1.289815,-0.007 1.93471,-7.9e-4 0.829355,0.008 1.659927,0.0151 2.487213,0.079 0.656564,0.0775 1.307441,0.18571 1.92577,0.43022 0.507833,0.056 1.02244,0.007 1.532456,0.0212 0.512913,-0.005 1.026978,-0.009 1.537496,-0.0646 0.464656,-0.0596 0.919705,-0.18554 1.388595,-0.20193 0.528245,-0.007 1.058097,-0.0175 1.582044,-0.092 0.516869,-0.0831 1.022456,-0.21759 1.538801,-0.30377 0.471955,-0.12345 0.908185,-0.37633 1.399323,-0.40301 0.557789,-7.9e-4 1.115578,-0.002 1.673367,-0.001 0.680014,0.002 1.360652,0.004 2.039626,0.0457 0.614034,0.0601 1.215977,0.18362 1.793785,0.40597 0.565793,0.18875 1.122611,0.39593 1.658667,0.65979 0.437679,0.21544 0.840396,0.48883 1.24876,0.75454 0.371961,0.29166 0.636579,0.65783 0.860644,1.07345 0.30267,0.42433 0.576591,0.84966 0.689888,1.36943 -0.0031,0.54192 -0.006,1.0849 -0.05954,1.6247 -0.06175,0.51606 -0.185735,1.01341 -0.30357,1.51718 -0.392347,1.58704 -2.689674,3.06448 -4.142361,2.67345 -0.440791,-0.14918 -0.872173,-0.33254 -1.267508,-0.58019 -0.408082,-0.24032 -0.807624,-0.49483 -1.231151,-0.70784 -0.385657,-0.20111 -0.752769,-0.43547 -1.13833,-0.63713 -0.449263,-0.22119 -0.936874,-0.33585 -1.410092,-0.49427 -0.522467,-0.17163 -1.014952,-0.41387 -1.510569,-0.65058 -0.443976,-0.22629 -0.887302,-0.47316 -1.281293,-0.77861 -0.309615,-0.24479 -0.644707,-0.45813 -0.981122,-0.6632 -0.478798,-0.18299 -0.969677,-0.34134 -1.42548,-0.57901 -0.384067,-0.19989 -0.74358,-0.4546 -1.169866,-0.55892 -0.500943,-0.11251 -1.017989,-0.16132 -1.497047,-0.35869 -0.519737,-0.18991 -1.057542,-0.32032 -1.585936,-0.48376 -0.45992,-0.14295 -0.933683,-0.23541 -1.385067,-0.40667 -0.512064,-0.14403 -1.015304,-0.33177 -1.504699,-0.53788 -0.449085,-0.2503 -0.918358,-0.45725 -1.402051,-0.63215 -0.46592,-0.17587 -0.885878,-0.34145 -1.398553,-0.26986 -0.511119,0.003 -1.024633,0.001 -1.532138,0.0699 -0.425421,0.0772 -0.805339,0.2295 -1.17615,0.45265 5.83325,-3.41053 3.334261,-2.32417 2.377347,-1.10375 -0.461176,0.43494 0.08811,-0.10017 -0.353957,0.38799 -0.140835,0.15551 -0.336423,0.27616 -0.466497,0.44047 -0.0368,0.0465 -0.05888,0.10292 -0.08831,0.15438 -0.574606,1.4387 0.229857,-0.48181 -3.557217,2.21368 -1.029192,0.73253 4.350038,-2.57018 3.278063,-1.90181 -0.920612,0.57399 -2.496796,1.70357 -3.863501,2.1863 -0.442315,0.17019 -0.895583,0.3026 -1.342642,0.46024 -0.627308,0.15201 -1.273116,0.031 -1.907984,-0.0224 -0.585531,-0.0756 -1.166657,-0.17966 -1.756109,-0.22265 -0.550545,-0.0905 -1.078155,-0.25202 -1.60779,-0.42476 -0.521571,-0.0556 -1.048314,-0.0119 -1.572086,-0.0264 -0.522076,-7.9e-4 -1.044151,-0.002 -1.566226,-0.002 -0.451684,0.002 -0.904639,0.002 -1.354212,0.0512 -0.480531,0.0578 -0.944623,0.17537 -1.399829,0.3407 -0.527284,0.12543 -1.077306,0.20755 -1.5717,0.43439 7.371734,-4.28223 3.097875,-2.01158 2.316547,-1.22806 -0.04335,0.0511 -0.0867,0.10217 -0.130047,0.15326 -0.05007,0.0419 -0.106983,0.0768 -0.1502,0.12575 -0.2214,0.25076 -0.251004,0.62754 -0.495541,0.86754 -0.260001,0.53266 -0.649059,0.98397 -0.877075,1.53414 -0.276811,0.45483 -0.618268,0.86756 -0.885933,1.32758 -0.354741,0.46746 -0.790204,0.86804 -1.039637,1.411 -1.112272,2.06867 -0.10827,1.03362 -4.035286,3.14228 -0.42839,-0.38814 -0.370354,-0.7335 -0.366267,-1.28741 -9.53e-4,-0.52955 -0.0038,-1.05922 0.0093,-1.58866 0.01768,-0.48487 0.03879,-0.97525 0.178013,-1.4435 0.04551,-0.13126 0.110133,-0.25584 0.149084,-0.38919 0.08776,-0.30045 0.106398,-0.62141 0.314248,-0.87725 0.148057,-0.18096 0.237942,-0.39394 0.399282,-0.56386 0.258887,-0.27265 0.06882,-0.0179 0.319335,-0.27078 0.05161,-0.0521 0.0934,-0.11305 0.140098,-0.16957 1.416464,-1.10691 0.07447,-0.40039 3.935606,-2.37212 1.082826,-0.55296 -2.101075,1.22417 -3.150171,1.83872 -0.138825,0.0813 0.57797,-0.29891 0.384844,-0.29132 1.771014,-1.20562 7.777781,-4.54603 0.880814,-0.5636 -0.159355,0.092 0.640459,-0.39487 0.44589,-0.32547 1.205324,-0.69386 2.408858,-1.39084 3.615974,-2.08158 0.256067,-0.14653 0.524022,-0.27391 0.782256,-0.41695 0.08381,-0.0464 0.33397,-0.18794 0.251187,-0.13971 -1.047627,0.61037 -2.097177,1.21742 -3.145766,1.82613 1.279006,-0.8233 1.443301,-0.93369 3.764996,-2.1871 1.083733,-0.58507 -2.129085,1.23861 -3.193797,1.85762 -0.482212,0.28035 0.979195,-0.65417 0.577285,-0.36616 1.542992,-1.16468 2.352333,-2.30047 4.659021,-2.93276 0.244282,-0.12187 0.489768,-0.24043 0.730758,-0.36874 0.07719,-0.0411 0.306533,-0.16844 0.231058,-0.12427 -3.597592,2.10551 -4.169834,2.46035 -2.94418,1.7056 1.246349,-0.98606 0.781557,-0.63456 3.80197,-2.22451 1.070073,-0.56329 -2.092458,1.21286 -3.137551,1.82124 -0.694013,0.40401 1.374137,-0.87627 0.725448,-0.42147 0.333094,-0.27984 0.682463,-0.52812 1.027379,-0.78875 0.440566,-0.22592 0.747795,-0.61844 1.162503,-0.88327 0.148151,-0.13018 0.246438,-0.31684 0.416478,-0.4194 0.229767,-0.1386 0.10074,0.0128 0.294317,-0.1448 0.03221,-0.0262 0.05546,-0.0618 0.08319,-0.0927 0.03844,0.0154 0.111191,-0.004 0.118729,0.0365 0.003,0.0164 -0.03128,0.12058 -0.0056,0.10636 3.678865,-2.03428 4.508048,-2.28293 3.156495,-1.8581 -1.076105,1.30199 -3.436048,1.45031 -4.302509,2.73033 -1.929474,1.0704 4.411168,-2.59697 2.509946,-1.46792 -1.180806,0.70123 -2.36924,1.38954 -3.553859,2.08431 -1.243958,0.50863 -2.899564,1.61992 2.717633,-1.63603 0.0761,-0.0441 -0.15054,0.091 -0.22638,0.13556 -1.198859,0.70417 -2.417535,1.37551 -3.597708,2.11057 -1.022508,0.63685 2.083016,-1.21057 3.124525,-1.81585 -1.352654,0.89053 -0.425866,0.28627 -3.792719,2.22003 -1.063164,0.61063 2.118983,-1.23397 3.179449,-1.84928 0.376867,-0.21867 -0.914919,0.46767 -0.489702,0.30293 -0.221332,0.30508 -0.502388,0.55987 -0.690882,0.89133 -0.155001,0.34473 -0.436827,0.7043 -0.78572,0.86174 -0.318839,0.245 -0.590055,0.56368 -0.847597,0.86916 -0.201974,0.20977 -0.367613,0.42711 -0.251529,0.71767 0.02487,-0.0472 0.158246,-0.14091 0.112014,-0.1143 -1.076513,0.61972 -4.283264,2.5176 -3.222622,1.8711 11.77923,-7.17985 -2.063279,1.48407 0.619949,-0.36454 0.339378,-0.30137 0.655962,-0.62022 0.982965,-0.93296 0.260098,-0.19342 0.13249,-0.0874 0.381035,-0.3202 1.336985,-1.02981 2.861814,-1.8639 4.445237,-2.46237 0.528693,-0.19021 1.061593,-0.36626 1.564722,-0.61908 0.481798,-0.20044 0.977336,-0.36552 1.439746,-0.61237 0.541311,-0.25511 1.096351,-0.47333 1.643234,-0.71488 0.654312,-0.27628 -0.09966,0.0354 0.562674,-0.21767 0.09719,-0.0371 0.377674,-0.17262 0.288631,-0.11881 -1.028115,0.62138 -2.072473,1.21547 -3.108708,1.8232 0.07709,-0.0243 0.150465,-0.0709 0.231285,-0.073 0.07051,-0.002 0.134996,0.041 0.202494,0.0615 -0.10423,-0.2305 -1.176065,0.0563 -1.371246,0.12096 -0.519454,0.18575 -1.054073,0.3291 -1.537917,0.60439 -0.08511,0.0448 -0.338386,0.18299 -0.255331,0.13447 1.033521,-0.6038 4.141949,-2.40165 3.106941,-1.80041 -1.209704,0.70273 -2.419889,1.40463 -3.631041,2.10486 -0.08449,0.0489 -0.340079,0.19169 -0.255862,0.14236 1.038423,-0.6082 2.07718,-1.21586 3.118532,-1.81903 0.08358,-0.0484 -0.163369,0.1031 -0.245057,0.15465 -0.413882,0.32908 -0.905282,0.56642 -1.21843,1.00242 -0.405394,0.41362 -0.713488,0.91606 -1.158811,1.28547 -0.232233,0.2563 -0.108577,0.1347 -0.371359,0.3644 -0.208465,0.21826 -0.336068,0.4754 -0.494641,0.72673 -0.05765,0.0914 -0.125259,0.17609 -0.187891,0.26413 -0.36735,0.4188 -0.742871,0.82216 -1.060863,1.2824 -0.256442,0.39202 -0.582711,0.73579 -0.976903,0.99141 -0.319507,0.31563 -0.759633,0.47172 -1.03994,0.83297 -0.376789,0.30826 -0.709232,0.66722 -1.07766,0.98106 -0.612016,0.67358 -3.788647,3.58013 -3.913418,1.54403 0.0688,-0.40283 0.224787,-0.77646 0.244423,-1.18621 0.0915,-0.42501 0.288292,-0.79836 0.437664,-1.19993 0.164717,-0.43907 0.310882,-0.8842 0.405447,-1.34233 0.09861,-0.41369 0.304328,-0.76659 0.431952,-1.16902 0.09276,-0.20383 0.114532,-0.40547 0.179776,-0.61857 0.03947,-0.12893 0.109796,-0.24707 0.14889,-0.37611 0.02274,-0.0751 0.02994,-0.15397 0.0449,-0.23096 0.118046,-0.40224 0.341382,-0.72318 0.657103,-0.99687 0.364394,-0.17326 0.560499,-0.51875 0.866228,-0.76942 0.717429,-0.8549 8.966824,-5.19461 1.171242,-0.79337 0.130775,-0.0841 0.5365,-0.41035 0.646201,-0.1195 0.0045,0.012 -0.02438,0.008 -0.03657,0.0117 -0.408142,0.0299 -0.812943,0.0958 -1.205117,0.21513 -0.430191,0.10733 -0.883683,0.12509 -1.28995,0.32131 -0.439997,0.17494 -0.895347,0.30967 -1.320741,0.52276 -0.284342,0.1269 -0.234158,0.0978 -0.509713,0.2479 -0.08366,0.0456 -0.331234,0.1884 -0.249091,0.14015 5.474911,-3.2164 3.912403,-2.27137 2.74024,-1.6073 -0.274356,0.40298 -0.446443,0.87553 -0.755558,1.26047 -0.306612,0.33093 -0.666955,0.63428 -0.848258,1.05084 -0.121393,0.19714 -0.286677,0.36969 -0.396494,0.57262 -0.118478,0.21893 -0.188992,0.46157 -0.383874,0.63418 -0.117887,0.10697 -0.279971,0.36651 -0.357233,0.42621 -0.02254,0.0174 -0.05681,0.004 -0.08521,0.007 0.001,-0.003 0.002,-0.005 0.0031,-0.008 -1.11381,0.64575 -2.227619,1.29151 -3.341429,1.93727 0.416424,-0.33158 0.350483,-1.04756 0.869856,-1.31521 0.5046,-0.42889 0.926407,-0.94697 1.446962,-1.35832 1.184407,-1.05308 3.051999,-1.8872 4.172864,-2.53208 0.09481,-0.0545 0.386763,-0.20421 0.292544,-0.14865 -1.03213,0.60865 -4.14261,2.41055 -3.106782,1.80822 1.201345,-0.69859 2.40222,-1.39797 3.603329,-2.09696 1.239033,-0.69082 0.984522,-0.55076 -2.946677,1.72325 -0.07115,0.0412 0.14075,-0.0853 0.207049,-0.13392 0.7501,-0.54968 -0.36034,0.2088 0.439722,-0.30011 0.07597,-0.0483 0.146553,-0.10465 0.21983,-0.15697 1.199033,-0.69221 2.392167,-1.39474 3.5971,-2.07663 0.393291,-0.22257 0.87233,-0.0493 1.278919,0.0381 0.449173,0.14206 0.870173,0.39179 1.356477,0.32733 0.482843,-0.0264 0.969155,-0.0666 1.423924,-0.24511 0.482676,-0.18924 0.976749,-0.34952 1.488151,-0.44246 0.556924,-0.0901 1.112745,-0.1086 1.676779,-0.1018 0.758671,-0.0266 1.51798,-0.0821 2.262356,-0.23971 0.917366,-0.20214 1.818638,-0.56094 2.764997,-0.55728 2.582521,0.005 2.482083,-0.36181 -1.205317,2.46091 -0.369176,-0.11671 -1.113211,0.26946 -1.519465,0.2698 -0.695458,0.13269 -1.38212,0.31717 -2.062787,0.51011 -0.78749,0.2607 -1.591244,0.5554 -2.418191,0.63323 -0.514186,-0.0557 -1.268797,-0.094 -1.526792,-0.64269 -0.03206,-0.0682 -0.0037,-0.15062 -0.0056,-0.22593 0.548947,-1.718 2.87361,-2.37419 4.155572,-3.06829 0.438687,-0.17763 0.906431,-0.27305 1.373116,-0.34422 0.475703,-0.10189 0.941935,-0.23804 1.425734,-0.30098 0.528656,-0.10125 1.058794,-0.0983 1.596022,-0.0858 0.58651,4.7e-4 1.173001,-0.002 1.759509,-0.002 0.532161,0 1.06432,0 1.596482,0 0.532146,-1e-5 1.064292,-1e-5 1.596438,-2e-5 0.532127,-1e-5 1.064257,-3e-5 1.596384,-1e-5 0.532932,4e-5 1.065864,9e-5 1.598795,7.2e-4 0.537388,7.6e-4 1.074775,0.002 1.61216,0.004 0.502954,3.7e-4 1.007382,0.008 1.50891,-0.0353 0.06132,-0.0103 0.12428,-0.0136 0.18397,-0.031 0.04512,-0.0132 0.167558,-0.0848 0.127601,-0.0601 -3.524758,2.18475 -4.12782,1.05177 -3.149449,2.16169 0.0051,0.006 -0.01101,-0.0109 -0.01648,-0.0163 -0.04184,-0.0242 -0.08368,-0.0485 -0.125518,-0.0727 -0.491344,-0.23212 -0.997754,-0.44536 -1.521172,-0.59233 -0.541255,-0.13648 -1.087892,-0.11142 -1.643194,-0.10343 -0.514446,0.005 -1.029957,0.0102 -1.542069,0.0646 -0.496464,0.0616 -0.985073,0.18601 -1.486357,0.19815 -0.584677,0.002 -1.169877,0.004 -1.753466,0.0437 -0.578403,0.0469 -1.150839,0.13542 -1.726578,0.2057 -0.698905,0.0324 -1.399103,0.007 -2.098593,0.0141 -0.661254,0.001 -1.322559,-0.002 -1.983753,0.01 -1.960663,0.0516 -2.765002,0.82204 2.09776,-1.78531 -0.09335,-0.11506 -0.243502,-0.29834 -0.241277,-0.30072 0.02302,-0.0246 0.0659,0.015 0.09942,0.0186 0.25599,0.0275 0.513707,0.0159 0.770279,0.0331 0.594833,0.0332 1.187746,0.0922 1.773518,0.20427 0.509275,0.0842 1.031115,0.10162 1.526529,0.25756 0.409453,0.13453 0.822791,0.24246 1.248426,0.3154 0.47136,0.0514 0.952561,0.0669 1.39945,0.24439 0.381542,0.15582 0.762283,0.31486 1.166373,0.4053 0.463635,0.11467 0.890357,0.31583 1.339982,0.47297 0.415555,0.16304 0.831895,0.32401 1.2513,0.47669 0.426286,0.19109 0.844325,0.40027 1.274204,0.58373 0.455504,0.17336 0.932495,0.27758 1.411055,0.36611 0.42424,0.12263 0.835493,0.28627 1.261115,0.40511 0.47802,0.17189 0.974505,0.28811 1.442408,0.49003 0.631139,0.22752 1.2652,0.45085 1.88015,0.7192 0.579758,0.28685 1.136319,0.62379 1.650905,1.01649 0.389183,0.298 0.790982,0.56998 1.102611,0.95734 0.276492,0.31102 0.588272,0.58488 0.866373,0.8946 0.253844,0.28902 0.517636,0.58512 0.851455,0.78241 0.377714,0.2287 0.72752,0.49971 1.124302,0.69784 0.45389,0.25183 0.950878,0.41289 1.393106,0.68718 0.432014,0.26574 0.896942,0.45124 1.372647,0.62506 0.499621,0.18792 0.964362,0.34604 1.506104,0.2448 0.532381,-0.0531 1.056037,-0.15058 1.566188,-0.31567 0.515821,-0.12098 1.022717,-0.27034 1.533625,-0.41007 0.51003,-0.16241 1.03132,-0.28607 1.529144,-0.48449 1.261808,-0.69091 0.265263,-0.14763 -3.025074,1.78797 -0.05411,0.0318 0.112339,-0.0577 0.161811,-0.0964 0.171585,-0.13407 0.228936,-0.34519 0.410001,-0.46971 0.219419,-0.13922 0.325543,-0.2867 0.501531,-0.47149 0.203258,-0.21341 0.17545,-0.13424 0.413239,-0.30041 0.06853,-0.0479 0.130181,-0.10495 0.195271,-0.15742 0.470241,-0.34843 0.575257,-0.0607 0.480317,-0.74862 -0.06522,-0.35366 -0.271566,-0.59563 -0.580668,-0.78092 -0.408284,-0.21758 -0.805204,-0.44935 -1.181367,-0.71999 -0.401614,-0.31937 -0.815944,-0.61959 -1.235075,-0.91552 -0.449223,-0.33809 -0.906003,-0.66825 -1.436161,-0.87104 -0.480018,-0.16944 -0.948661,-0.35973 -1.419366,-0.55323 -0.54203,-0.17977 -1.083217,-0.37263 -1.635868,-0.51333 -0.520113,-0.0957 -1.034846,-0.17694 -1.567193,-0.13523 -0.795515,-0.001 -1.591212,0.002 -2.386568,-0.0149 -0.93285,-0.0292 -1.869692,-0.0626 -2.78583,-0.2579 -0.91934,-0.19817 -1.813803,-0.49302 -2.74411,-0.64298 -0.920398,-0.21375 -1.8527,-0.45371 -2.804705,-0.42234 -0.733018,-1.6e-4 -1.466332,-0.002 -2.199135,0.0166 3.367328,-2.52121 1.928289,-2.33387 4.116173,-2.32781 0.532181,0 1.064358,1e-5 1.596539,-1.2e-4 0.532463,-1.7e-4 1.064926,-5.3e-4 1.597387,-0.001 0.532199,-5.3e-4 1.064421,-0.002 1.596599,0.003 0.514361,0.008 1.030261,0.0189 1.540446,0.0913 0.460862,0.0731 0.916287,0.2013 1.387309,0.17083 0.528113,7.9e-4 1.056542,5.3e-4 1.584171,0.0261 0.485331,0.0303 0.968182,0.0835 1.442892,0.19303 0.492305,0.0788 0.99118,0.0337 1.487821,0.0576 0.503349,0.0198 1.009155,0.0507 1.497843,0.18301 0.539983,0.147 1.091383,0.24702 1.620668,0.43029 0.564084,0.22528 1.114754,0.48411 1.668119,0.73407 0.39537,0.1734 0.807014,0.30677 1.187622,0.51391 0.458899,0.16116 0.947227,0.26291 1.308936,0.61462 0.305366,0.30389 0.550246,0.65142 0.759164,1.02807 0.192294,0.3792 0.450717,0.72017 0.664165,1.08763 0.212823,0.31259 0.421722,0.62535 0.68916,0.8966 0.299648,0.32151 0.718897,0.4952 1.038913,0.79542 0.350808,0.30375 0.759566,0.56181 0.979403,0.98473 0.245604,0.4075 0.377179,0.85939 0.576262,1.28918 0.163735,0.41966 0.374235,0.82043 0.555673,1.23269 0.196456,0.48967 0.526891,0.89178 0.754189,1.36531 0.961824,2.10979 -0.967012,1.88559 -3.337549,3.3144 -0.499129,0.14445 -1.025589,0.0614 -1.539137,0.0831 -0.528947,8e-5 -1.058312,0.002 -1.586709,-0.0252 -0.479658,-0.0342 -0.960551,-0.0878 -1.4093,-0.27326 -0.384702,-0.14732 -0.784998,-0.25109 -1.168575,-0.40222 -0.429913,-0.13351 -0.842304,-0.31727 -1.272916,-0.4498 -0.482547,-0.17482 -0.981024,-0.2171 -1.490284,-0.25539 -0.562022,-0.0894 -1.101693,-0.24928 -1.628169,-0.46657 -0.598405,-0.21615 -1.182357,-0.46987 -1.774949,-0.70111 -0.63718,-0.2111 -1.242214,-0.47338 -1.844119,-0.7688 -0.458785,-0.16354 -0.919023,-0.32525 -1.370484,-0.50698 -0.467672,-0.23498 -0.911146,-0.51573 -1.392343,-0.72086 -0.543886,-0.23632 -1.065202,-0.52183 -1.575618,-0.82321 -0.504028,-0.32462 -1.028575,-0.61901 -1.558155,-0.89917 -0.663167,-0.31494 -1.292426,-0.69025 -1.919703,-1.07044 -1.285412,-0.85625 -0.386117,-0.16516 2.957687,-2.46418 0.0409,-0.0281 0.08884,0.0447 0.135279,0.0622 0.230151,0.0867 0.477107,0.1088 0.71564,0.1615 0.563263,0.14649 1.116565,0.33022 1.700159,0.38487 0.527662,0.0656 1.058508,0.10934 1.542318,0.35221 0.436731,0.15733 0.850167,0.35023 1.237305,0.6101 0.436449,0.32972 0.826045,0.7191 1.295469,1.00663 0.441547,0.22861 0.939678,0.11735 1.42164,0.10096 0.46454,-0.0445 0.919176,-0.13042 1.367068,-0.26338 0.523121,-0.088 1.035248,-0.20504 1.498129,-0.47865 0.632812,-0.3202 0.999448,-0.32352 1.696323,-0.29768 0.540189,0.007 1.08925,0.013 1.606098,0.19043 0.638968,0.27132 1.104677,0.7278 1.50028,1.29581 0.518708,0.5925 1.01528,1.20517 1.569574,1.76565 0.453991,0.46839 0.931331,0.91088 1.384742,1.37912 1.068327,1.15181 0.321847,0.22314 -3.076765,2.46699 -0.03271,0.0216 -0.05917,-0.0518 -0.09173,-0.0736 -0.182137,-0.12205 -0.397714,-0.17688 -0.595212,-0.26709 -0.451353,-0.22085 -0.871543,-0.4723 -1.232919,-0.8267 -0.344736,-0.23806 -0.640027,-0.53904 -1.006599,-0.74761 -0.414655,-0.27355 -0.784614,-0.61051 -1.206854,-0.87458 -0.412756,-0.31177 -0.801093,-0.6583 -1.26182,-0.9005 -0.482414,-0.33312 -0.986893,-0.62722 -1.469506,-0.96003 -0.549119,-0.34359 -1.093634,-0.68744 -1.600917,-1.09228 -0.524013,-0.33957 -1.067853,-0.63905 -1.623097,-0.92444 -0.554437,-0.24542 -1.120651,-0.43289 -1.713746,-0.56217 -0.668208,-0.20604 -1.346711,-0.38891 -1.955154,-0.74535 -0.470763,-0.17402 -0.965137,-0.28077 -1.445123,-0.42624 -0.513913,-0.0999 -1.02757,-0.10916 -1.550757,-0.0929 -0.586512,-5.3e-4 -1.173006,0.002 -1.759516,0.002 -0.532106,0 -1.064213,-1e-5 -1.596319,0 -0.531802,3e-5 -1.063604,5e-5 -1.595403,2.7e-4 -0.534178,2.6e-4 -1.068356,0.001 -1.602531,0.001 -0.563205,-1.5e-4 -1.126506,1.3e-4 -1.689552,-0.0151 -0.550114,-0.0188 -1.103879,-0.0376 -1.642885,-0.15972 -0.483053,-0.10233 -0.968677,-0.12584 -1.459296,-0.17468 -0.591958,-0.0958 -1.161262,-0.27043 -1.740797,-0.42029 -0.828342,-0.0917 -1.667439,-0.0144 -2.499268,-0.0426 -1.021969,-0.004 -2.043967,-0.004 -3.065915,0.004 -0.927065,0.0138 -1.860216,0.0222 -2.776706,0.17812 -0.579893,0.10936 -1.176608,0.19307 -1.725854,0.41348 5.668359,-3.31854 3.306948,-2.16869 2.200273,-1.08403 -0.312463,0.41665 -0.455539,0.8984 -0.623113,1.38666 -0.194027,0.40931 -0.360053,0.82854 -0.529555,1.24749 -0.03039,0.0546 -0.05429,0.11339 -0.09117,0.16386 -0.02553,0.0349 -0.07799,0.0493 -0.09399,0.0895 -0.07564,0.19002 0.05795,0.46872 -0.0061,0.66446 -0.01349,0.41963 -0.04775,0.83829 -0.167822,1.24298 -0.147172,0.43641 -0.360704,0.85667 -0.584872,1.25639 -0.124378,0.20588 -0.215622,0.29374 -0.421718,0.41366 -1.18349,0.68866 -2.370246,1.37178 -3.547953,2.07028 -1.003311,0.59507 4.476229,-2.67142 3.028524,-1.75346 -1.540519,0.90628 -3.052682,1.86819 -4.65163,2.66842 -1.272986,0.52164 -2.7638,1.54031 2.58267,-1.57759 0.09163,-0.0534 -0.18847,0.0985 -0.27585,0.15869 -0.874277,0.60175 0.405533,-0.19452 -0.561085,0.39278 -0.726099,0.40778 -1.393717,0.90586 -2.107364,1.3342 -12.1985104,7.16208 2.183115,-1.2611 -0.925647,0.57005 -1.223843,0.72088 -2.457084,1.42588 -3.675214,2.15638 -0.909966,0.54569 4.404786,-2.69677 2.764293,-1.5783 -0.663506,0.43734 -1.230466,0.92637 -1.891314,1.35653 -0.76642,0.52707 -1.609451,0.94191 -2.316978,1.55036 -0.284482,0.20485 -0.371512,0.23866 -0.5916,0.50288 -0.08049,0.0966 -0.132151,0.21598 -0.217887,0.30797 -0.236044,0.25328 -0.567875,0.4321 -0.777161,0.71758 -0.447608,0.45682 -0.845693,0.95219 -1.259842,1.43933 -0.02565,0.0237 -0.409915,0.42468 -0.421916,0.43102 -7.601393,4.01621 -4.2480549,2.46811 -3.2764229,1.59229 0.4938242,-0.83449 0.9302539,-1.70319 1.5765193,-2.44036 0.3112396,-0.49446 0.6170756,-0.99295 0.9300336,-1.48612 0.09023,-0.14218 0.201608,-0.27131 0.280997,-0.41981 0.136166,-0.25471 0.168443,-0.55749 0.341708,-0.79625 0.507808,-0.88485 0.942699,-1.80368 1.380071,-2.72382 0.224471,-0.41322 0.364258,-0.82437 0.538233,-1.25872 0.03736,-0.0933 0.0982,-0.1793 0.116132,-0.27816 0.01296,-0.0714 -0.02431,-0.44143 -0.03264,-0.53415 -0.27114,-1.4542 -0.08289,-0.16 3.399319,-2.11092 0.03442,-0.0193 -0.0692,0.0434 -0.08984,0.0771 -0.111768,0.18209 -0.173901,0.42003 -0.225362,0.62362 -0.16799,0.51957 -0.398006,1.01505 -0.553433,1.54021 -0.141342,0.49319 -0.318669,1.01954 -0.58531,1.45036 -0.72037,-1.17041 -0.07116,-0.0981 -3.365564,1.83978 -0.05191,0.0305 0.0973,-0.0737 0.13333,-0.12195 0.114961,-0.15398 0.163535,-0.35272 0.315848,-0.48226 0.445029,-0.50876 0.703247,-1.11428 0.967054,-1.73267 0.154304,-0.3121 0.319471,-0.61552 0.454918,-0.93632 0.02526,-0.0598 0.06308,-0.11604 0.07466,-0.17994 0.0091,-0.0502 -0.05887,-0.12728 -0.01444,-0.15232 1.158731,-0.65304 2.361795,-1.2241 3.542693,-1.83616 -0.02923,-0.013 -0.05871,-0.0524 -0.08769,-0.0389 -0.07527,0.0351 -0.394899,0.94336 -0.44249,1.07491 -0.206812,0.53137 -0.507565,1.0198 -0.628047,1.58379 -0.15669,0.43748 -0.229987,0.68804 0.0079,1.12758 0.160212,0.11409 0.310442,-0.0106 0.27816,0.008 -6.200095,3.65455 -3.896624,2.53882 -2.934702,1.62884 0.434425,-0.2737 0.832461,-0.59285 1.153284,-0.99834 0.147571,-0.11828 0.317151,-0.20741 0.463601,-0.32708 0.286325,-0.23395 0.489834,-0.53115 0.706731,-0.82539 0.905312,-1.25223 2.831863,-1.66515 4.012964,-2.25527 0.03514,-0.0175 -0.0773,0.029 -0.10145,0.0599 -0.04224,0.0542 -0.05991,0.12365 -0.08987,0.18547 -0.244759,0.38314 -0.366591,0.84086 -0.608875,1.22888 -0.277032,0.37426 -0.566977,0.73064 -0.793682,1.14146 -0.05818,0.0656 -0.251162,0.41382 -0.275085,0.42604 -8.3966282,4.29052 -4.218377,2.72064 -3.52522,1.63189 0.318134,-0.27507 0.486375,-0.59737 0.721117,-0.94355 0.38815,-0.57241 0.225746,-0.2946 0.657267,-0.83884 0.111293,-0.14036 0.213949,-0.28736 0.320924,-0.43104 0.159424,-0.30499 0.345005,-0.59598 0.50072,-0.90289 0.292687,-0.57686 0.519041,-1.19587 0.919316,-1.71452 0.521557,-0.7449 0.984523,-1.50479 1.399113,-2.31442 0.200891,-0.58122 0.498118,-1.13199 0.376022,-1.76463 -0.02204,-0.16549 -0.0303,-0.27823 -0.07515,-0.43656 -0.01139,-0.0402 -0.02191,-0.0823 -0.0457,-0.11668 -0.0064,-0.009 -0.02373,0.036 -0.01397,0.0305 3.437852,-1.92941 4.559891,-2.14811 3.138508,-1.847 -0.309895,0.31373 -0.494862,0.70907 -0.669406,1.10752 -1.390981,0.022 -0.148402,-0.0109 -3.539981,1.85529 -0.03462,0.019 0.08337,0.002 0.117155,-0.0181 0.200203,-0.12148 0.244701,-0.39879 0.436716,-0.53109 0.283273,-0.45228 0.675167,-0.82494 0.898453,-1.31278 0.869308,-1.24835 1.446958,-0.8264 3.777653,-1.99094 0.03025,-0.0151 -0.07254,-0.0118 -0.101259,0.006 -0.08119,0.0505 -0.180635,0.25625 -0.215961,0.31879 -0.305258,0.4218 -0.525515,0.90798 -0.781686,1.36085 -0.120807,0.31849 -0.268492,0.66559 -0.04607,0.98529 0.101743,0.006 0.04283,0.008 0.175696,-0.0204 -1.080738,0.62245 -2.161476,1.2449 -3.242214,1.86735 -0.07022,0.0409 0.149625,-0.0645 0.220048,-0.10507 0.184183,-0.10614 0.285358,-0.203 0.450302,-0.33996 0.67492,-0.43248 1.328172,-0.9067 1.854447,-1.51816 0.515054,-0.65814 1.002152,-1.34138 1.471102,-2.03224 0.03206,-0.06 0.11832,-0.36092 0.290308,-0.30997 0.07205,0.0214 0.101862,0.18202 0.169292,0.14886 7.797488,-3.83491 3.779827,-2.77609 3.193598,-1.64843 -0.292936,0.43403 -0.479253,0.94009 -0.74473,1.39248 -0.131485,0.27756 -0.128533,0.29229 -0.293627,0.5552 -0.134307,0.21388 -0.41776,0.47947 -0.460432,0.7393 -0.01615,0.0983 0.01528,0.19869 0.02292,0.29804 0.01359,0.10807 0.02486,0.23805 0.05105,0.34872 0.296125,1.25144 -2.275446,1.20022 -3.389895,1.84192 -0.09063,0.0522 0.518013,-0.0376 0.277461,-0.14642 0.120942,-0.21348 0.264129,-0.34085 0.415105,-0.52696 0.161649,-0.19927 0.146554,-0.26362 0.273405,-0.49515 0.0513,-0.0936 0.112663,-0.18137 0.168994,-0.27206 0.440779,-0.58121 0.8896,-1.15382 1.347819,-1.72142 0,0 3.65185,-1.51265 3.65185,-1.51265 z"
       inkscape:connector-curvature="0" />
    <path
       style="fill:#ff7f2a;stroke:#000000;stroke-width:0.26458332px;stroke-linecap:butt;stroke-linejoin:miter;stroke-opacity:1"
       d="m 30.067078,267.199 0.266081,12.77186 c 0,0 18.625621,0.79824 18.625621,-0.26608 0,-1.06432 -2.394723,-12.2397 -2.394723,-12.2397 0,0 -16.76306,1.86256 -16.496979,-0.26608 z"
       id="path920"
       inkscape:connector-curvature="0" />
  </g>
</svg>
